<svg width="2920" height="5662" viewBox="0 0 2920 5662" fill="none" xmlns="http://www.w3.org/2000/svg">
<g clip-path="url(#clip0_81_112)">
<rect width="1440" height="2759" fill="#1B1B1B"/>
<rect width="1440" height="106" fill="#C1C1C1"/>
<rect x="76" y="22" width="104" height="63" fill="#857F7F"/>
<circle cx="1342.5" cy="53.5" r="22.5" fill="#857F7F"/>
<rect x="803" y="32" width="500" height="43" fill="#857F7F"/>
<rect x="76.5" y="361.5" width="429.002" height="661" fill="#D9D9D9" stroke="black"/>
<rect x="506.502" y="361.5" width="427.995" height="661" fill="#D9D9D9" stroke="black"/>
<rect x="935.498" y="361.5" width="429.002" height="661" fill="#D9D9D9" stroke="black"/>
<rect x="76.5" y="1023.5" width="429.002" height="661" fill="#D9D9D9" stroke="black"/>
<rect x="506.502" y="1023.5" width="427.995" height="661" fill="#D9D9D9" stroke="black"/>
<rect x="935.498" y="1023.5" width="429.002" height="661" fill="#D9D9D9" stroke="black"/>
<rect x="76.5" y="1685.5" width="429.002" height="661" fill="#D9D9D9" stroke="black"/>
<rect x="506.502" y="1685.5" width="427.995" height="661" fill="#D9D9D9" stroke="black"/>
<rect x="935.498" y="1685.5" width="429.002" height="661" fill="#D9D9D9" stroke="black"/>
<path d="M78.5 282H905.5" stroke="white"/>
<rect y="2448" width="1440" height="311" fill="#C1C1C1"/>
</g>
<g clip-path="url(#clip1_81_112)">
<rect width="1440" height="3077" transform="translate(1480)" fill="#1B1B1B"/>
<rect x="1480" width="1440" height="106" fill="#C1C1C1"/>
<rect x="1556" y="22" width="104" height="63" fill="#857F7F"/>
<circle cx="2813.5" cy="53.5" r="22.5" fill="#857F7F"/>
<rect x="2274" y="32" width="500" height="43" fill="#857F7F"/>
<circle cx="2200.5" cy="701.5" r="224.5" fill="#D9D9D9"/>
<line x1="1764" y1="1354.5" x2="2635" y2="1354.5" stroke="white"/>
<line x1="1764" y1="1475.5" x2="2635" y2="1475.5" stroke="white"/>
<line x1="1764" y1="1596.5" x2="2635" y2="1596.5" stroke="white"/>
<line x1="1764" y1="1717.5" x2="2635" y2="1717.5" stroke="white"/>
<line x1="1764" y1="1838.5" x2="2635" y2="1838.5" stroke="white"/>
<line x1="1764" y1="1959.5" x2="2635" y2="1959.5" stroke="white"/>
<line x1="1764" y1="2080.5" x2="2635" y2="2080.5" stroke="white"/>
<line x1="1764" y1="2201.5" x2="2635" y2="2201.5" stroke="white"/>
<line x1="1764" y1="2322.5" x2="2635" y2="2322.5" stroke="white"/>
<line x1="1764" y1="2443.5" x2="2635" y2="2443.5" stroke="white"/>
<rect x="1479" y="2766" width="1440" height="311" fill="#C1C1C1"/>
<rect x="1952" y="1078" width="495" height="94" fill="#D9D9D9"/>
<line x1="1790" y1="337.5" x2="2609" y2="337.5" stroke="white"/>
</g>
<g clip-path="url(#clip2_81_112)">
<rect width="1440" height="2863" transform="translate(0 2799)" fill="#1B1B1B"/>
<rect y="2799" width="1440" height="106" fill="#C1C1C1"/>
<rect x="76" y="2821" width="104" height="63" fill="#857F7F"/>
<circle cx="1333.5" cy="2852.5" r="22.5" fill="#857F7F"/>
<rect x="794" y="2831" width="500" height="43" fill="#857F7F"/>
<rect x="76.5" y="3154.5" width="429.002" height="661" fill="#D9D9D9" stroke="black"/>
<rect x="506.502" y="3154.5" width="427.995" height="661" fill="#D9D9D9" stroke="black"/>
<rect x="935.498" y="3154.5" width="429.002" height="661" fill="#D9D9D9" stroke="black"/>
<rect x="76.5" y="3816.5" width="429.002" height="661" fill="#D9D9D9" stroke="black"/>
<rect x="506.502" y="3816.5" width="427.995" height="661" fill="#D9D9D9" stroke="black"/>
<rect x="935.498" y="3816.5" width="429.002" height="661" fill="#D9D9D9" stroke="black"/>
<rect x="76.5" y="4478.5" width="429.002" height="661" fill="#D9D9D9" stroke="black"/>
<rect x="506.502" y="4478.5" width="427.995" height="661" fill="#D9D9D9" stroke="black"/>
<rect x="935.498" y="4478.5" width="429.002" height="661" fill="#D9D9D9" stroke="black"/>
<rect y="5351" width="1440" height="311" fill="#C1C1C1"/>
<circle cx="143.5" cy="3029.5" r="67.5" fill="#D9D9D9"/>
<line x1="546" y1="3028.5" x2="1365" y2="3028.5" stroke="white"/>
</g>
<rect width="942" height="888" transform="translate(1480 3117)" fill="#1B1B1B"/>
<line x1="1641" y1="3363.5" x2="2260" y2="3363.5" stroke="white"/>
<line x1="1641" y1="3450.5" x2="2260" y2="3450.5" stroke="white"/>
<line x1="1641" y1="3697.5" x2="2260" y2="3697.5" stroke="white"/>
<rect x="1641.5" y="3517.5" width="468" height="75" fill="#D9D9D9" stroke="white"/>
<rect x="2124.5" y="3517.5" width="135" height="75" fill="#D9D9D9" stroke="white"/>
<circle cx="2233.5" cy="3250.5" r="26" fill="#D9D9D9" stroke="white"/>
<defs>
<clipPath id="clip0_81_112">
<rect width="1440" height="2759" fill="white"/>
</clipPath>
<clipPath id="clip1_81_112">
<rect width="1440" height="3077" fill="white" transform="translate(1480)"/>
</clipPath>
<clipPath id="clip2_81_112">
<rect width="1440" height="2863" fill="white" transform="translate(0 2799)"/>
</clipPath>
</defs>
</svg>
