<svg width="367" height="367" viewBox="0 0 367 367" fill="none" xmlns="http://www.w3.org/2000/svg">
<path d="M145.94 166.42C149.503 163.839 151.224 159.579 151.224 153.722C151.347 150.937 150.773 148.193 149.544 145.694C148.438 143.687 146.8 142.008 144.793 140.82C142.712 139.558 140.401 138.722 137.994 138.362C135.372 137.871 132.71 137.625 130.088 137.666H101.294V170.311H132.464C137.83 170.352 142.376 169.041 145.94 166.42ZM150.773 195.911C146.759 192.839 141.393 191.323 134.717 191.323H101.212V229.826H134.061C137.133 229.826 139.96 229.539 142.704 228.965C145.301 228.458 147.776 227.457 149.995 226.016C152.084 224.665 153.763 222.821 155.033 220.446C156.262 218.07 156.876 215.039 156.876 211.394C156.876 204.144 154.828 199.024 150.773 195.911ZM183.5 0C82.1654 0 0 82.1654 0 183.5C0 284.835 82.1654 367 183.5 367C284.835 367 367 284.835 367 183.5C367 82.1654 284.835 0 183.5 0ZM218.93 117.514H275.619V131.317H218.93V117.514ZM183.5 231.341C180.849 236.374 177.063 240.722 172.441 244.039C167.608 247.397 162.242 249.855 156.548 251.288C150.592 252.885 144.447 253.67 138.28 253.623H70.4509V113.909H136.396C143.073 113.909 149.135 114.524 154.664 115.671C160.153 116.817 164.822 118.783 168.754 121.446C172.646 124.108 175.718 127.672 177.888 132.095C180.018 136.478 181.124 141.967 181.124 148.479C181.124 155.524 179.527 161.341 176.332 166.051C173.096 170.761 168.427 174.571 162.078 177.561C170.721 180.018 177.069 184.401 181.247 190.545C185.507 196.771 187.596 204.226 187.596 212.991C187.596 220.118 186.244 226.221 183.5 231.341ZM297.696 209.714H224.624C224.624 217.66 227.368 225.279 231.505 229.375C235.683 233.43 241.663 235.478 249.486 235.478C255.139 235.478 259.931 234.044 264.027 231.218C268.082 228.392 270.54 225.402 271.441 222.289H295.935C292.003 234.454 286.022 243.138 277.912 248.38C269.884 253.623 260.054 256.245 248.626 256.245C240.639 256.245 233.471 254.934 227.04 252.435C220.855 250.019 215.285 246.332 210.697 241.581C206.174 236.702 202.678 230.963 200.416 224.706C197.918 217.783 196.689 210.493 196.771 203.161C196.771 195.583 198.041 188.538 200.498 181.984C205.209 169.246 214.998 159.047 227.491 153.763C234.167 150.978 241.335 149.585 248.585 149.667C257.187 149.667 264.641 151.306 271.113 154.664C277.343 157.872 282.753 162.468 286.924 168.099C291.06 173.711 293.969 180.1 295.812 187.309C297.573 194.395 298.187 201.85 297.696 209.714ZM247.725 170.557C243.301 170.557 239.574 171.335 236.707 172.85C233.84 174.366 231.464 176.25 229.662 178.421C227.945 180.517 226.677 182.943 225.934 185.548C225.279 187.719 224.828 189.931 224.665 192.183H269.925C269.27 185.097 266.812 179.855 263.535 176.168C260.095 172.523 254.565 170.557 247.725 170.557Z" fill="#001F3F"/>
</svg>
