<?xml version="1.0" encoding="UTF-8" standalone="no"?>
<!-- Created with Inkscape (http://www.inkscape.org/) -->

<svg
   width="1134.3018mm"
   height="680.38898mm"
   viewBox="0 0 1134.3018 680.38898"
   version="1.1"
   id="svg1"
   xml:space="preserve"
   xmlns:xlink="http://www.w3.org/1999/xlink"
   xmlns="http://www.w3.org/2000/svg"
   xmlns:svg="http://www.w3.org/2000/svg"><defs
     id="defs1"><linearGradient
       id="linearGradient90"><stop
         style="stop-color:#eae4dc;stop-opacity:1;"
         offset="0"
         id="stop90" /><stop
         style="stop-color:#eae3d2;stop-opacity:0;"
         offset="1"
         id="stop91" /></linearGradient><linearGradient
       xlink:href="#linearGradient90"
       id="linearGradient32"
       gradientUnits="userSpaceOnUse"
       x1="779.89673"
       y1="6149.8936"
       x2="779.89673"
       y2="6213.9668"
       gradientTransform="translate(-51.372973,924.71351)" /></defs><g
     id="layer1"
     transform="translate(-85.33651,-7021.1143)"><path
       id="path25"
       style="fill:#eeeee3;fill-opacity:1;stroke:url(#linearGradient32);stroke-width:0.2;stroke-dasharray:none;stroke-opacity:1"
       d="m 148.43366,7021.3828 c -1.1165,0.2173 -2.13283,0.534 -2.26033,0.7044 -0.6056,0.8146 -4.52254,1.1042 -16.38453,1.2102 -7.47539,0.068 -13.10697,0.2654 -13.78417,0.4858 -0.6297,0.2052 -2.36033,0.4508 -3.84472,0.5447 -1.4846,0.094 -4.40582,0.4312 -6.49211,0.7482 -2.0863,0.3176 -4.1047,0.4728 -4.485,0.3468 -0.3804,-0.1262 -2.178992,-0.2872 -3.99769,-0.3597 -3.127797,-0.1235 -11.452232,0.8571 -11.631332,1.5994 -0.264099,1.0926 2.667796,36.4666 1.923397,57.9133 -0.1529,4.394 0.422867,9.1576 0.353467,10.8174 -2.153688,10.8647 2.152657,15.541 1.980758,17.5638 -0.016,0.1115 -0.02721,0.784 -0.03721,0.9477 h -0.390673 v 9.8821 c -0.1272,4.6869 -0.31673,9.24 -0.42013,10.1188 -0.1029,0.8788 -0.297398,5.0333 -0.431498,9.232 -0.1335,4.1985 -0.427206,11.3882 -0.650606,15.9773 -0.2235,4.5892 -0.597491,13.1373 -0.831991,18.9957 -0.530767,13.2554 -0.770302,18.2834 -1.02371,22.4431 h -0.589111 v 500.8495 H 1219.5383 v -500.8495 h -0.1002 v -18.3591 -68.2899 -35.8278 c -1.5498,-0.6858 -4.4725,-1.3956 -8.6677,-1.9151 -2.2317,-0.2764 -4.9227,-0.7192 -5.9795,-0.9839 -4.1137,-1.0305 -5.4574,-1.2486 -8.7566,-1.4232 -3.4314,-0.1817 -9.8064,-1.7343 -11.976,-2.9161 -1.5108,-0.823 -10.4774,-1.8477 -14.3557,-1.6407 -2.3983,0.1274 -3.896,0.013 -5.641,-0.447 -2.2419,-0.5866 -2.7075,-0.5883 -8.2791,-0.037 -6.1107,0.606 -6.9819,0.5419 -9.9234,-0.7343 -1.3776,-0.5973 -4.4637,-0.5882 -8.6651,0.029 -2.5929,0.3801 -4.0359,0.402 -6.6198,0.098 -1.8174,-0.2136 -4.7894,-0.3584 -6.6047,-0.3209 -1.8152,0.038 -3.7864,-0.087 -4.3801,-0.2744 -0.7552,-0.2386 -2.0682,-0.1712 -4.3744,0.2253 -2.8132,0.4843 -3.7171,0.5017 -6.1692,0.1168 -2.6393,-0.4141 -2.9699,-0.3957 -4.07,0.2242 -0.8731,0.4918 -2.645,0.7918 -6.5366,1.108 -7.8103,0.635 -10.832,0.9673 -11.3636,1.2485 -0.2599,0.1374 -1.2959,0.3361 -2.3027,0.4408 -1.0069,0.1046 -2.6386,0.4191 -3.6256,0.6976 -0.987,0.2787 -3.506,0.6198 -5.5981,0.7586 -2.0921,0.1389 -4.5669,0.4743 -5.4994,0.7452 -0.9322,0.271 -2.7584,0.5661 -4.0577,0.6573 -1.2992,0.091 -3.0351,0.348 -3.8571,0.5721 -0.8224,0.2241 -2.9367,0.5351 -4.6984,0.6909 -8.6399,0.7641 -13.9216,1.6166 -15.4187,2.4892 -2.1787,1.2702 -5.0854,1.8423 -8.1571,1.6051 -2.0532,-0.1587 -3.2703,-0.078 -4.2758,0.2863 -5.9903,2.1656 -10.3728,2.2259 -14.0053,0.1928 -1.2794,-0.7161 -3.1435,-1.1235 -4.9697,-1.0873 -0.7366,0.015 -1.5765,-0.2112 -1.8671,-0.5023 -0.2905,-0.291 -0.842,-0.5411 -1.2242,-0.5411 -0.3825,0 -1.0593,-0.2399 -1.5048,-0.5203 -0.4453,-0.2802 -1.9519,-0.6163 -3.3481,-0.7478 -1.7912,-0.1686 -2.91041,-0.5002 -3.80291,-1.1245 -1.1944,-0.8354 -1.5556,-0.8816 -6.47609,-0.895 -3.7003,-0.014 -6.62778,0.2192 -10.10068,0.7834 -4.67069,0.7587 -5.00087,0.7689 -7.35407,0.2201 -1.355,-0.3163 -2.99847,-0.8069 -3.65197,-1.0903 -0.6742,-0.2923 -2.36801,-0.516 -3.91501,-0.5173 -1.4997,0 -3.42197,-0.1476 -4.27157,-0.3256 -0.8494,-0.1782 -2.79242,-0.5156 -4.31912,-0.7493 -12.67378,-1.9398 -12.94471,-1.9939 -16.0631,-3.206 -1.5628,-0.6073 -3.44184,-1.1017 -4.17494,-1.1017 -0.7329,0 -3.70879,0.025 -6.61458,0.054 -2.9057,0.029 -5.78885,-0.1003 -6.40685,-0.2878 -0.618,-0.1867 -1.96326,-0.55 -2.98896,-0.8067 -1.0786,-0.27 -2.22465,-0.8701 -2.71715,-1.4242 -0.8455,-0.9446 -0.89255,-0.9585 -6.03684,-0.9451 -2.8515,0.014 -6.4262,-0.1825 -7.9437,-0.4212 -3.0282,-0.4765 -5.86365,-0.2711 -7.11275,0.5152 -0.4427,0.2787 -1.47772,0.5172 -2.30011,0.5307 -0.8222,0.014 -1.97501,0.2449 -2.56161,0.5147 -0.71249,0.3279 -1.23429,0.375 -1.57199,0.1421 -0.3323,-0.2297 -1.67493,-0.2066 -3.91863,0.065 -2.39399,0.2904 -3.83754,0.305 -4.83484,0.05 -0.782,-0.2003 -2.76681,-0.3517 -4.4111,-0.337 -2.0649,0.019 -3.84805,-0.22 -5.76554,-0.7725 -1.7551,-0.5054 -3.64049,-0.779 -5.12579,-0.7442 -1.2919,0.034 -5.03989,0.033 -8.32869,0 -3.2888,-0.034 -6.84536,-0.061 -7.90236,-0.075 -2.4873,-0.02 -7.25946,0.6997 -10.29756,1.5524 -1.6009,0.4495 -3.51343,0.6649 -5.76502,0.6475 -1.8536,-0.014 -3.85129,0.082 -4.43849,0.2139 -0.5873,0.1329 -3.08532,0.2789 -5.55212,0.3245 -2.9165,0.055 -5.13822,0.2896 -6.35362,0.6723 -1.0278,0.3236 -2.57555,0.5881 -3.43855,0.5881 -0.8633,0 -1.79219,0.1856 -2.06499,0.4124 -0.3114,0.2589 -2.60792,0.4542 -6.17171,0.5266 -8.19929,0.1652 -10.96219,0.3869 -12.90929,1.0345 -2.1616,0.7191 -3.75991,0.8478 -13.0545,1.0537 -7.92109,0.1752 -9.08919,0.2555 -12.81369,0.8785 -1.2921,0.2161 -5.42441,0.4688 -9.1829,0.5628 -3.7587,0.094 -9.42845,0.3724 -12.59975,0.6196 -3.1714,0.2467 -6.56344,0.35 -7.53804,0.2279 -1.0769,-0.1347 -3.2547,0.031 -5.5516,0.4211 -2.0793,0.3534 -4.66249,0.6481 -5.73919,0.6481 -1.07649,0 -2.0876,0.1142 -2.2474,0.247 -0.1593,0.1329 -3.41049,0.2828 -7.22489,0.3338 -5.58379,0.074 -7.48788,0.2353 -9.76787,0.8253 -1.5574,0.4031 -3.06952,0.9706 -3.36052,1.2619 -0.3787,0.3794 -1.33356,0.5207 -3.36156,0.4966 -1.93419,-0.022 -3.57728,0.2042 -5.18107,0.7152 -1.2921,0.4116 -4.94346,1.0787 -8.11475,1.4831 -3.1713,0.4042 -6.23232,0.9227 -6.80062,1.1514 -2.6729,1.0753 -22.04572,-0.4423 -26.94151,-2.1105 -0.8222,-0.2803 -2.55211,-0.652 -3.84421,-0.8263 -1.2921,-0.1745 -2.90356,-0.4948 -3.58066,-0.7111 -0.677,-0.2169 -1.58565,-0.2985 -2.02055,-0.1844 -0.4348,0.1154 -1.96336,-0.039 -3.39566,-0.3463 -1.4323,-0.3051 -3.21415,-0.5545 -3.95945,-0.5545 -0.7451,0 -2.6998,-0.3257 -4.3434,-0.7239 -1.6437,-0.3984 -4.42966,-0.8916 -6.19135,-1.0951 -1.7618,-0.2038 -3.91598,-0.4538 -4.78627,-0.5545 -1.2128,-0.141 -1.9086,0.014 -2.9838,0.6465 -1.194,0.7114 -1.81594,0.8123 -4.18424,0.7116 -1.5298,-0.065 -3.16606,-0.1289 -3.63596,-0.1421 -1.58929,-0.044 -13.63438,0.4614 -19.00607,0.7974 -9.87509,0.6175 -15.35836,1.5129 -17.39015,2.8416 -0.5845,0.3822 -1.76322,0.7856 -2.62052,0.8956 -0.857,0.1101 -2.61567,0.3585 -3.90777,0.5519 -3.04239,0.4555 -7.1796,0.7262 -13.02659,0.8537 -5.194,0.1128 -8.73021,0.4073 -10.6779,0.8893 -0.7047,0.169 -2.43472,0.2504 -3.84421,0.1685 -1.4095,-0.082 -3.90834,-0.2251 -5.55264,-0.3204 -1.64449,-0.095 -4.33498,-0.35 -5.97948,-0.5674 -1.64429,-0.2172 -5.68016,-0.4343 -8.96896,-0.4826 -4.15589,-0.06 -6.57797,-0.261 -7.93957,-0.6569 -1.16849,-0.3393 -2.68374,-0.4998 -3.75584,-0.3979 -1.1627,0.1115 -2.28111,-0.029 -3.16621,-0.3968 -0.753,-0.3126 -3.46738,-0.7391 -6.03168,-0.9483 -3.86599,-0.3156 -5.58061,-0.2785 -10.03711,0.2176 -2.9562,0.3292 -6.05952,0.7454 -6.89622,0.925 -0.8365,0.1797 -3.52687,0.3987 -5.97896,0.4873 -4.862,0.1756 -7.16721,0.4158 -10.43761,1.0867 -1.3765,0.2817 -4.56558,0.4008 -8.96948,0.3323 -5.54439,-0.086 -7.02254,1e-4 -7.83104,0.4336 -1.0332,0.5586 -7.52745,1.1831 -14.16555,1.3627 -1.9967,0.053 -4.15887,0.2731 -4.80487,0.4878 -0.7917,0.2634 -1.53093,0.2785 -2.26963,0.044 -0.6025,-0.1904 -1.96769,-0.3462 -3.03289,-0.3462 -1.065,0 -2.54199,-0.2254 -3.28249,-0.5012 -0.7403,-0.2756 -3.55578,-0.692 -6.25698,-0.9245 -2.7016,-0.2326 -5.48862,-0.6206 -6.19342,-0.8625 -0.7048,-0.2418 -2.33765,-0.5529 -3.62975,-0.6914 -1.292,-0.1385 -3.69481,-0.5896 -5.33921,-1.0021 -1.7849,-0.4474 -4.40593,-0.7794 -6.50193,-0.8237 -2.054,-0.043 -4.09153,-0.2982 -4.91133,-0.6134 -1.0242,-0.394 -4.09915,-0.6334 -11.43754,-0.8898 -5.5204,-0.1929 -10.61409,-0.3427 -11.31869,-0.3427 -4.7065,0.029 -22.43112,-0.4124 -22.73091,-0.5663 -0.2023,-0.1034 -1.89742,-0.2842 -3.76722,-0.401 -7.22599,-0.4517 -8.58601,-0.5947 -10.82311,-1.1354 -1.54,-0.3714 -3.0385,-0.4829 -4.4912,-0.3333 -5.20679,0.5369 -6.81848,0.6169 -13.28497,0.6692 -8.8551,0.072 -12.54872,-0.6111 -21.90151,-4.0478 -1.0046,-0.369 -2.06109,-0.672 -2.34869,-0.6728 -0.2872,0 -1.09923,-0.4466 -1.80403,-0.9896 -2.4069,-1.8548 -4.56599,-3.0509 -6.98148,-3.869 -1.3282,-0.4498 -2.63157,-0.8186 -2.89647,-0.8196 -0.2649,0 -0.69416,-0.2153 -0.95446,-0.476 -0.2603,-0.2607 -1.26588,-0.6914 -2.23397,-0.957 -0.968,-0.2655 -1.85309,-0.6838 -1.96629,-0.9297 -0.1126,-0.2458 -1.09063,-0.8023 -2.17093,-1.2371 -1.0805,-0.4348 -2.98653,-1.561 -4.23643,-2.5022 -1.2501,-0.9411 -2.6722,-1.7105 -3.1595,-1.7105 -0.4873,0 -2.25241,-0.5593 -3.92121,-1.2428 -1.669,-0.6835 -3.25236,-1.2428 -3.51916,-1.2428 -0.2667,0 -0.9267,-0.3917 -1.4671,-0.8697 -0.5401,-0.478 -1.57743,-0.9777 -2.30373,-1.1105 -0.7261,-0.1328 -1.61384,-0.3566 -1.97404,-0.4982 -0.3602,-0.1417 -1.40436,-0.5588 -2.31976,-0.9266 -0.9155,-0.368 -2.09516,-0.6225 -2.62206,-0.5648 -1.4323,0.1561 -8.30096,-2.1685 -11.15126,-3.7739 -1.3755,-0.7746 -3.11251,-1.5152 -3.85971,-1.648 -0.7473,-0.133 -1.58737,-0.4704 -1.86707,-0.7508 -0.2799,-0.2802 -0.8431,-0.5096 -1.2516,-0.5096 -0.4082,0 -1.45089,-0.3998 -2.31769,-0.8888 -0.8669,-0.4891 -2.76815,-1.3792 -4.22455,-1.9777 -3.3055,-1.3586 -6.22372,-2.7769 -7.61762,-3.7021 -0.5887,-0.3905 -2.11498,-1.0906 -3.38998,-1.5554 -1.27539,-0.465 -2.79812,-1.02 -3.38532,-1.2335 -0.5874,-0.2137 -1.60518,-0.7479 -2.26188,-1.187 -0.6565,-0.4391 -2.0022,-0.9747 -2.98999,-1.1902 -0.9878,-0.2154 -2.71793,-0.7924 -3.84473,-1.282 -1.1267,-0.4896 -3.25395,-1.1764 -4.72684,-1.5266 -2.8092,-0.6679 -4.1871,-1.2118 -5.6162,-2.2158 -0.4728,-0.3323 -1.75492,-0.9329 -2.84892,-1.3354 -1.0943,-0.4023 -2.0527,-0.871 -2.1301,-1.0412 -0.077,-0.1699 -2.85742,-0.4105 -6.17792,-0.5354 -3.9711,-0.1488 -7.69853,-0.5314 -10.89133,-1.1183 -8.76789,-1.6108 -12.31155,-1.9883 -14.57275,-1.5482 z" /></g></svg>
