<?xml version="1.0" encoding="UTF-8" standalone="no"?>
<!-- Created with Inkscape (http://www.inkscape.org/) -->

<svg
   width="208.24306mm"
   height="109.83974mm"
   viewBox="0 0 208.24305 109.83974"
   version="1.1"
   id="svg1"
   xml:space="preserve"
   xmlns="http://www.w3.org/2000/svg"
   xmlns:svg="http://www.w3.org/2000/svg"><defs
     id="defs1" /><g
     id="layer1"
     transform="translate(-2.2988184,-581.35395)"><path
       id="path2"
       style="fill:#001f3f;fill-opacity:1"
       d="m 203.7052,581.35392 c -0.77339,0 -1.85313,0.17515 -2.39934,0.38912 -0.5462,0.21396 -2.50118,0.42964 -4.34443,0.47904 -1.84326,0.0494 -3.81167,0.27638 -4.37441,0.50437 -0.56273,0.22799 -2.1049,0.38738 -3.42667,0.35398 -1.76009,-0.0444 -2.65165,0.10174 -3.33158,0.54725 -0.52107,0.34138 -1.26338,0.52457 -1.69188,0.41703 -1.28792,-0.32325 -1.80804,0.25224 -1.42731,1.57975 0.25033,0.87285 0.59711,1.22534 1.41439,1.43712 0.59555,0.15432 1.52438,0.69005 2.06395,1.19011 0.8779,0.81362 0.96073,1.08293 0.78807,2.56212 -0.10611,0.90914 -0.29476,1.97966 -0.4191,2.37918 -0.27813,0.89369 1.2245,1.78618 1.88878,1.1219 0.64315,-0.64314 0.87986,-0.003 0.41444,1.12034 -0.38583,0.93148 -0.31266,1.35527 0.64492,3.72691 1.14178,2.8278 1.10645,3.75832 -0.19843,5.2002 -0.50603,0.55915 -0.46169,0.65891 0.55138,1.23558 0.72687,0.41376 1.10281,0.90103 1.10381,1.43195 0.001,0.44265 0.28005,0.90871 0.6196,1.03612 0.33955,0.12741 0.78688,0.45762 0.99374,0.73328 0.20685,0.27562 0.6831,0.44114 1.05833,0.36794 1.02232,-0.19941 2.35553,1.53161 2.06654,2.68304 -0.12532,0.49931 -0.36902,0.99511 -0.54156,1.10174 -0.41709,0.25779 -0.40474,2.2686 0.0139,2.2686 0.56849,0 1.43609,-1.08093 1.43609,-1.78904 0,-0.37419 0.21845,-0.68006 0.48524,-0.68006 0.48242,0 0.92604,1.45229 0.92604,3.03185 0,0.50784 0.4038,1.12606 1.04541,1.60042 1.31386,0.97138 1.89725,3.67399 0.94362,4.37131 -0.80575,0.58918 -0.74117,0.83678 0.69091,2.63808 1.07587,1.35327 1.23271,1.77358 1.06092,2.84893 -0.17165,1.07441 0.0198,1.59057 1.29191,3.48299 0.82151,1.22203 1.71297,2.63914 1.98127,3.14864 0.2683,0.5095 0.72991,1.20403 1.02526,1.54358 0.29534,0.33955 0.71048,0.61754 0.92294,0.61753 0.33483,-10e-6 1.77653,-1.5881 2.40451,-2.64842 0.11563,-0.19525 -0.01,-2.02052 -0.27905,-4.0566 -0.26906,-2.03606 -0.49475,-4.97192 -0.50075,-6.52415 -0.007,-1.55221 -0.24634,-3.69534 -0.53278,-4.7625 -0.28644,-1.06714 -0.52307,-3.4484 -0.52607,-5.29166 -0.006,-3.658 -0.51792,-8.88623 -1.08882,-11.1125 -0.19902,-0.77611 -0.42295,-2.99896 -0.49765,-4.93924 -0.0747,-1.94026 -0.24814,-4.90852 -0.3855,-6.59598 -0.16871,-2.07242 -0.10917,-3.57008 0.18345,-4.61522 0.36255,-1.29492 0.34487,-1.75799 -0.10749,-2.84065 -0.49425,-1.1829 -0.66088,-1.29398 -1.94665,-1.29398 z m -18.70842,16.91835 c -0.0749,-0.008 -0.16004,0.0277 -0.24959,0.1173 -0.12098,0.12099 -0.0967,0.50475 0.0543,0.85266 0.26236,0.60444 0.2817,0.60389 0.42788,-0.0124 0.12366,-0.52137 -0.008,-0.93458 -0.23255,-0.95756 z m -2.31148,0.36793 c -0.42034,0 -0.54054,0.43525 -0.54054,1.96112 0,2.15064 0.41796,2.27337 1.06505,0.31265 0.46633,-1.41298 0.26778,-2.27377 -0.52451,-2.27377 z m 21.33151,2.99879 c 0.19402,0.11991 0.35295,0.36727 0.35295,0.54983 0,0.18258 -0.15893,0.33177 -0.35295,0.33177 -0.19403,0 -0.35243,-0.24734 -0.35243,-0.54984 0,-0.30245 0.1584,-0.45168 0.35243,-0.33176 z m -64.39297,0.75551 c -2.02749,-0.038 -6.24891,1.20004 -6.65076,2.08979 -0.27137,0.60087 -0.71076,0.70006 -3.35121,0.75706 -2.14265,0.0463 -3.35077,-0.0938 -4.09743,-0.4749 -2.02261,-1.03247 -4.90558,-1.21192 -7.17062,-0.44701 -4.22592,1.42712 -5.77716,3.83888 -5.53764,8.60826 0.35266,7.02239 3.18738,10.85945 8.38191,11.34453 1.5043,0.14047 2.36875,0.0803 2.52698,-0.1757 0.13227,-0.21402 0.92804,-0.69334 1.76837,-1.06505 0.84033,-0.37172 2.18227,-1.26677 2.98173,-1.98903 0.87476,-0.79028 1.6654,-1.23177 1.98541,-1.10897 0.76663,0.29418 0.6705,2.32539 -0.15142,3.20187 -0.6263,0.66787 -0.65069,0.93316 -0.29197,3.19774 0.21514,1.3582 0.40358,4.38158 0.41858,6.71845 0.0225,3.50997 0.14058,4.42232 0.68006,5.24568 0.44567,0.67965 0.58599,1.3329 0.44184,2.05362 -0.11625,0.58129 0.0476,2.13004 0.36432,3.44216 0.61921,2.56548 0.67354,2.28016 -1.03767,5.4405 -0.48081,0.88794 -0.49043,1.15528 -0.0713,1.96577 0.26682,0.51599 0.73382,1.14465 1.03766,1.39681 0.36783,0.30528 0.55466,1.0626 0.55966,2.26705 0.004,0.99489 0.39759,3.31715 0.87488,5.16041 1.16829,4.51187 1.1512,4.6795 -0.59893,5.96656 -1.24726,0.91724 -1.79855,1.08882 -3.49901,1.08882 -1.11021,0 -2.46809,0.22273 -3.01739,0.49454 -0.5493,0.27181 -2.02763,0.83401 -3.28507,1.24954 -3.53914,1.16951 -4.52574,2.37267 -4.64209,5.66012 -0.05,1.41226 0.13347,2.02797 0.95808,3.21789 0.56084,0.8093 1.60333,1.85753 2.31665,2.32958 1.23935,0.82015 1.46042,0.84713 4.98058,0.61133 2.72105,-0.18227 4.04326,-0.12237 5.05912,0.22892 1.80183,0.62313 8.75224,0.63722 10.24072,0.0207 0.60554,-0.25082 2.90704,-0.50975 5.1139,-0.57515 2.20686,-0.0654 4.51859,-0.23002 5.13767,-0.36536 0.91799,-0.20069 1.28463,-0.0869 1.98799,0.6165 1.03199,1.03199 3.51462,1.2114 5.54127,0.4005 0.97168,-0.38879 1.64959,-0.43063 2.79569,-0.17312 0.83215,0.18698 1.71718,0.26168 1.96681,0.16588 0.24964,-0.0958 0.97269,0.0939 1.60662,0.42168 0.97448,0.50393 1.74492,0.55782 4.98574,0.34778 3.33477,-0.21614 3.95611,-0.16815 4.78058,0.37207 0.52124,0.34153 1.41711,0.71729 1.99058,0.83458 1.53501,0.31394 3.43532,0.0145 4.45089,-0.70177 0.49118,-0.34642 1.3372,-0.68381 1.87947,-0.74931 0.84007,-0.10145 1.089,-0.40607 1.68466,-2.0593 0.3845,-1.06715 0.84864,-2.64076 1.03146,-3.49695 0.18283,-0.8562 0.59347,-2.38383 0.91209,-3.39462 0.44741,-1.41934 0.49427,-2.08143 0.20619,-2.90783 -0.32778,-0.94029 -0.26816,-1.16845 0.49144,-1.88206 0.67125,-0.6306 0.8504,-1.13073 0.8015,-2.23811 -0.0346,-0.78436 0.0571,-2.96468 0.20412,-4.84518 l 0.26717,-3.41891 -1.27486,-1.5565 c -1.52079,-1.85592 -1.80513,-4.05653 -0.56586,-4.38061 0.84278,-0.22038 1.25497,-1.53657 0.7674,-2.44998 -0.19089,-0.35762 -0.46522,-1.60258 -0.60978,-2.76675 -0.48405,-3.89825 -3.58914,-6.73101 -7.57628,-6.91173 -2.73997,-0.12419 -6.77551,0.71518 -7.75457,1.61283 -0.48507,0.44473 -1.38365,1.06183 -1.99678,1.37097 -0.61312,0.30915 -1.60548,1.15678 -2.20503,1.88412 -1.02006,1.23748 -1.08959,1.50456 -1.08159,4.15272 0.005,1.55652 0.17683,3.46498 0.38241,4.24109 0.20557,0.77611 0.49624,2.12566 0.64595,2.99878 0.31558,1.8404 0.79733,2.99709 1.76269,4.23333 0.62952,0.80619 0.95568,3.69657 0.76636,6.7908 -0.038,0.62143 -1.41624,0.88545 -1.93167,0.37001 -0.46996,-0.46996 -3.22811,-0.42468 -5.27823,0.0868 -1.13134,0.28226 -3.00492,0.51367 -4.16305,0.51367 -1.15813,0 -2.55035,0.2295 -3.09387,0.51056 -0.86616,0.44788 -1.08053,0.44663 -1.73736,-0.0134 -0.6508,-0.45581 -0.85493,-0.45919 -1.55185,-0.0238 -1.33713,0.83541 -3.59916,0.99798 -5.39708,0.38758 -1.26759,-0.43036 -1.74092,-0.46045 -2.1332,-0.13488 -0.41889,0.34764 -0.50437,0.23053 -0.50437,-0.69091 0,-1.1254 1.11657,-3.14841 2.89853,-5.25136 0.54006,-0.63734 0.98186,-1.44516 0.98186,-1.79524 0,-0.35008 -0.81587,-1.37667 -1.81333,-2.28152 l -1.81384,-1.64537 0.19017,-3.04116 c 0.12775,-2.04763 0.0434,-3.40206 -0.25735,-4.14445 -0.68733,-1.69646 -1.01128,-6.88315 -0.47077,-7.53442 0.54902,-0.66152 0.68126,-9.16129 0.15606,-10.02937 -0.24294,-0.40163 -0.2188,-1.03895 0.077,-2.02623 0.30537,-1.01908 0.32427,-1.64068 0.0651,-2.12493 -0.59721,-1.11589 -0.45485,-4.63445 0.21756,-5.37745 0.75922,-0.83895 1.41561,-0.81786 1.88567,0.0605 0.27154,0.50738 0.73854,0.70538 1.66295,0.70538 0.707,0 1.81682,0.1921 2.466,0.42685 0.91983,0.33228 1.42786,0.33312 2.30218,0.003 1.0234,-0.38629 1.20664,-0.34247 2.08515,0.49919 1.20457,1.15411 2.40715,1.16949 4.1,0.0527 0.72529,-0.47848 1.93551,-1.16161 2.68976,-1.51825 1.0748,-0.5082 1.57012,-1.07351 2.29082,-2.61379 0.82691,-1.76728 0.93188,-2.4635 1.04128,-6.91018 l 0.12196,-4.94491 -1.22577,-0.44287 c -0.67418,-0.24378 -1.9393,-1.07117 -2.8112,-1.83865 -2.18677,-1.92487 -3.07489,-2.18168 -7.13858,-2.06447 -1.94028,0.056 -3.7413,-0.0308 -4.00234,-0.19276 -0.2755,-0.17099 -0.81656,-0.11169 -1.28984,0.1416 -0.6409,0.34303 -1.33047,0.34664 -3.22306,0.0171 -1.32422,-0.2306 -2.60794,-0.58566 -2.85306,-0.7891 -0.24512,-0.20347 -0.80367,-0.27591 -1.24127,-0.16123 -0.43759,0.11468 -1.27206,0.0461 -1.85415,-0.15244 -0.18256,-0.0623 -0.42711,-0.0938 -0.71675,-0.0992 z m 52.73787,0.16123 c 0.1117,-0.0203 0.22955,0.0394 0.3669,0.17673 0.27471,0.27471 0.23756,0.50256 -0.13074,0.80822 -0.61524,0.51057 -1.01011,0.0361 -0.56689,-0.6811 0.11307,-0.18294 0.21903,-0.28351 0.33073,-0.30385 z m 1.87999,0.0103 c 0.52854,0.008 1.13223,0.5612 1.13223,1.22318 0,0.94735 -1.10986,1.035 -1.59629,0.12609 -0.30212,-0.56449 -0.30566,-0.86842 -0.0139,-1.16013 0.1344,-0.1344 0.30183,-0.19189 0.47801,-0.18914 z m -135.887834,8.15506 c -1.099213,-0.0633 -2.30918,0.29025 -4.130497,1.15187 -2.284161,1.08058 -6.172036,1.23604 -7.508069,0.30024 -0.702058,-0.49174 -1.360117,-0.53743 -4.400248,-0.30541 -1.966001,0.15005 -4.606162,0.32136 -5.867342,0.38086 -4.577106,0.21576 -8.31307,0.74303 -9.348783,1.31981 -0.582083,0.32415 -1.228926,0.5907 -1.437639,0.5917 -0.208713,10e-4 -0.752496,0.39911 -1.208195,0.88418 -0.455698,0.48507 -1.078685,0.88177 -1.384411,0.8816 -0.305727,-1.8e-4 -1.03229,0.47085 -1.614372,1.04645 -1.672651,1.654 -3.518128,3.12843 -4.441589,3.54862 -3.083663,1.4031 -4.448268,2.39592 -5.435844,3.95531 -3.1329595,4.94696 -3.6401485,5.81146 -3.8814172,6.61924 -0.1448799,0.48507 -0.5610275,1.16597 -0.9250082,1.51308 -0.3835996,0.36582 -0.661975,1.11625 -0.661975,1.78491 0,0.63445 -0.2329272,1.4615 -0.5177979,1.83813 -0.2848707,0.37663 -0.5229667,0.91233 -0.5291667,1.19062 -0.00617,0.27829 -0.3477132,1.20169 -0.7591268,2.05156 -0.4988275,1.03045 -0.6857479,1.92849 -0.561206,2.69596 0.1873168,1.1543 -0.4176951,4.43112 -1.0536825,5.70714 -0.4880625,0.97923 -0.5276433,7.1594 -0.055294,8.6186 0.2198247,0.6791 0.6951436,1.65642 1.0562662,2.17144 0.8481492,1.2096 0.8277954,1.85883 -0.097152,3.10989 -1.5415224,2.08502 -0.4997699,5.66908 2.569869,8.84029 2.045641,2.11333 4.9324041,6.17122 6.1267571,8.61239 0.954851,1.95165 2.189704,3.1665 3.475757,3.41891 0.403917,0.0793 0.8825,0.73409 1.235584,1.69137 0.436117,1.18239 0.81404,1.62603 1.554944,1.82418 0.538432,0.144 1.864496,0.86985 2.94659,1.61282 3.050839,2.09474 3.35691,2.22177 5.354195,2.22777 1.029985,0.003 2.934987,0.16964 4.233333,0.37104 1.298346,0.2014 3.948254,0.49638 5.88853,0.65526 3.894546,0.31892 5.725691,0.178 6.526216,-0.50178 0.291042,-0.24714 1.115645,-0.69159 1.832447,-0.98754 0.716802,-0.29595 2.084753,-1.3705 3.040124,-2.38797 l 1.737362,-1.85001 1.468644,0.76584 c 1.998665,1.04176 2.845255,0.9659 4.659147,-0.41548 0.852518,-0.64923 2.147487,-1.37658 2.877861,-1.61643 0.730372,-0.23985 2.084746,-1.03419 3.009635,-1.76527 0.924888,-0.73108 2.25438,-1.51824 2.954342,-1.74925 2.589055,-0.85446 5.251202,-4.53443 5.217252,-7.21144 -0.02647,-2.08748 -1.460079,-4.66388 -3.672127,-6.5996 l -2.074292,-1.81539 -3.204972,0.24236 c -1.762815,0.13334 -3.522817,0.45315 -3.910873,0.71055 -1.158634,0.76854 -3.444544,3.13128 -4.7625,4.9227 -2.333708,3.17207 -2.747519,3.41412 -8.191748,4.79092 -0.915962,0.23164 -2.176966,0.79895 -2.802413,1.26039 -1.29931,0.95859 -2.10355,1.0464 -3.217374,0.3514 -0.429736,-0.26815 -1.716415,-0.58989 -2.859257,-0.71469 -1.484623,-0.16212 -2.644868,-0.57679 -4.063835,-1.45262 -1.092301,-0.67421 -2.255368,-1.22577 -2.584338,-1.22577 -0.758934,0 -2.979125,-1.93442 -3.603398,-3.13934 -0.261525,-0.50477 -0.967726,-1.43203 -1.569413,-2.06086 -0.804337,-0.84061 -1.09399,-1.47576 -1.09399,-2.39882 0,-0.69049 -0.217885,-1.68419 -0.484209,-2.20813 -0.266323,-0.52394 -0.600345,-1.9051 -0.742073,-3.06907 -0.141729,-1.16395 -0.46764,-2.52273 -0.724504,-3.01945 -0.256863,-0.49672 -0.666942,-3.13527 -0.911055,-5.86372 -0.400562,-4.47707 -0.386102,-5.11268 0.150378,-6.51744 0.326947,-0.85609 0.594796,-1.80929 0.594796,-2.11821 0,-0.30892 0.374462,-1.41495 0.831991,-2.45773 0.457528,-1.04279 0.93565,-2.46498 1.062984,-3.16053 0.175046,-0.95618 0.672382,-1.62324 2.038118,-2.7342 0.993478,-0.80816 1.92392,-1.46917 2.067574,-1.46917 0.143654,0 0.35417,-0.46654 0.468189,-1.03662 0.149947,-0.74974 0.863719,-1.53324 2.57917,-2.83187 1.304411,-0.98747 2.745111,-1.88899 3.201355,-2.0035 1.65363,-0.41503 7.428544,0.0486 8.103382,0.65061 0.35054,0.31269 1.622195,0.96601 2.825667,1.45211 1.536553,0.62064 2.823068,1.5114 4.321183,2.99103 1.173367,1.15889 2.140723,2.24464 2.149223,2.41277 0.0085,0.16813 0.147792,1.44725 0.309542,2.8422 0.317193,2.73551 1.058743,3.94158 4.527372,7.36131 1.61905,1.59623 2.583718,1.9203 5.71438,1.9203 1.667521,0 2.300223,-0.19089 3.693315,-1.11363 2.170445,-1.43765 3.933222,-4.12728 4.396631,-6.70863 0.360162,-2.00623 0.295768,-2.44291 -0.804602,-5.45135 -0.704882,-1.92716 -0.739869,-3.3305 -0.215491,-8.66407 0.24199,-2.4613 0.372591,-5.53088 0.290421,-6.82129 l -0.149344,-2.34611 -2.417941,-2.25723 c -1.73412,-1.61874 -2.776587,-2.31677 -3.685563,-2.46858 -0.697108,-0.11642 -1.797369,-0.37411 -2.445329,-0.57258 -0.36022,-0.11033 -0.714666,-0.17785 -1.08107,-0.19895 z m 62.993054,4.254 c 0.52077,-0.13033 1.08912,-7.8e-4 1.42524,0.45837 0.53161,0.72622 0.32612,2.25053 -0.36277,2.68873 -1.27235,0.80936 -2.60738,-0.43148 -2.20193,-2.0469 0.14549,-0.5797 0.61869,-0.96986 1.13946,-1.1002 z m 16.26619,0.8351 c 0.64803,0.0577 1.18741,0.64047 0.94516,1.27175 -0.12833,0.33443 -0.33567,0.58991 -0.46043,0.56741 -1.58702,-0.2863 -2.17008,-1.1547 -1.14412,-1.70377 0.2152,-0.11517 0.44338,-0.15461 0.65939,-0.13539 z m 58.81398,1.37045 c -0.51703,0.0334 -0.42979,0.38777 0.2434,1.10433 0.57889,0.6162 0.84504,0.71201 1.05626,0.3793 0.50004,-0.78769 0.3135,-1.24084 -0.58084,-1.4118 -0.30736,-0.0588 -0.54647,-0.083 -0.71882,-0.0718 z m -59.06409,1.56787 c 0.18258,0 0.33176,0.23811 0.33176,0.52916 0,0.54554 -0.4161,0.70063 -0.81339,0.30334 -0.28184,-0.28184 0.0368,-0.8325 0.48163,-0.8325 z M 33.53781,619.2167 c 0.147973,-0.003 0.363389,0.17108 0.7922,0.51831 0.738549,0.59804 0.792948,0.777 0.387056,1.26607 -1.00078,1.20587 -2.226493,0.23181 -1.567346,-1.2454 0.1596,-0.35765 0.240117,-0.53636 0.38809,-0.53898 z m -8.048604,3.1259 c 0.264579,-0.0882 0.397215,0.0439 0.309025,0.30851 -0.08489,0.25467 -0.362873,0.53264 -0.617534,0.61754 -0.264579,0.0882 -0.396698,-0.0444 -0.308508,-0.30903 0.08489,-0.25466 0.362355,-0.53212 0.617017,-0.61702 z m -9.834542,9.81129 c 0.205479,0 0.275462,0.15893 0.155546,0.35295 -0.119916,0.19403 -0.288061,0.35295 -0.373621,0.35295 -0.08556,0 -0.155546,-0.15892 -0.155546,-0.35295 0,-0.19402 0.168142,-0.35295 0.373621,-0.35295 z m 194.525076,6.35 c -0.28495,0 -0.51831,0.23813 -0.51831,0.52917 0,0.29104 0.14196,0.52916 0.31522,0.52916 0.17327,0 0.40612,-0.23812 0.5178,-0.52916 0.12369,-0.32233 8.9e-4,-0.52917 -0.31471,-0.52917 z m -70.36831,13.05295 c 0.19402,0 0.35295,0.23813 0.35295,0.52917 0,0.29104 -0.15893,0.52916 -0.35295,0.52916 -0.19403,0 -0.35295,-0.23812 -0.35295,-0.52916 0,-0.29104 0.15892,-0.52917 0.35295,-0.52917 z m 0.17621,5.29167 c 0.32926,0 0.52917,0.33334 0.52917,0.88211 0,0.85649 -0.34305,1.12611 -0.82269,0.64648 -0.44378,-0.44379 -0.23561,-1.52859 0.29352,-1.52859 z m 2.35903,2.8484 c 0.16227,0.0491 0.30399,0.21437 0.41031,0.49145 0.10927,0.28483 0.0649,0.60067 -0.0987,0.70176 -0.37782,0.23351 -1.1562,-0.67573 -0.84491,-0.98702 0.18794,-0.18794 0.37104,-0.25534 0.5333,-0.20619 z m -11.08459,13.09636 c 0.42515,-0.0611 0.86754,0.0786 1.01544,0.46406 0.13428,0.34993 -0.0546,0.86127 -0.47181,1.27847 -0.61273,0.61274 -0.74773,0.6326 -1.13636,0.16433 -0.24254,-0.2923 -0.38689,-0.81695 -0.32039,-1.16582 0.0797,-0.41809 0.48797,-0.67999 0.91312,-0.74104 z m 26.18806,3.81062 c 0.19403,0 0.35295,0.15892 0.35295,0.35295 0,0.19402 -0.15892,0.35295 -0.35295,0.35295 -0.19402,0 -0.35243,-0.15893 -0.35243,-0.35295 0,-0.19403 0.15841,-0.35295 0.35243,-0.35295 z" /></g></svg>
