<svg width="367" height="300" viewBox="0 0 367 300" fill="none" xmlns="http://www.w3.org/2000/svg">
<path d="M322.557 0.00444798C312.636 -0.142666 289.59 3.23346 251.112 29.0485C230.14 23.7946 207.827 21.202 185.475 21.202C160.882 21.202 136.029 24.3325 112.853 30.7057C57.6086 -7.0726 33.2245 0.669307 33.2245 0.669307C17.3055 40.5737 27.1427 70.1178 30.1326 77.4552C11.4222 97.697 0 123.545 0 155.225C0 179.141 2.71553 200.592 9.34996 219.239C9.7179 220.679 9.59864 220.358 10.2186 221.59C11.6802 225.45 13.3053 229.197 15.1319 232.816C15.7578 234.118 16.3275 235.082 16.3275 235.082C34.9775 269.93 71.7428 292.441 137.157 299.509L236.092 299.621C305.853 292.687 339.329 270.109 354.754 235.026L355.735 232.741C357.197 229.197 358.471 225.51 361.956 213.097C365.441 200.685 367 179.189 367 155.215C367 120.832 354.117 93.3202 333.197 72.3896C336.852 60.5605 341.736 34.2904 328.321 0.659719C328.321 0.659719 326.44 0.0619752 322.557 0.00414837L322.557 0.00444798ZM244.592 126.18C260.7 126.145 274.499 128.918 284.859 139.813V139.822C297.822 153.467 305.408 169.941 305.408 187.695C305.408 270.587 252.224 272.842 186.624 272.842C121.013 272.842 67.8406 261.356 67.8406 187.695C67.8406 170.059 75.3159 153.683 88.119 140.093C109.476 117.445 145.617 129.438 186.625 129.438C207.674 129.435 227.444 126.217 244.592 126.18L244.592 126.18ZM122.398 150.59C108.749 150.59 97.683 169.089 97.683 191.918C97.683 214.751 108.748 233.256 122.398 233.256C136.048 233.256 147.114 214.751 147.114 191.918C147.114 169.092 136.049 150.606 122.398 150.59ZM255.006 150.59C241.356 150.59 230.291 169.089 230.291 191.918C230.291 214.751 241.356 233.256 255.006 233.256C268.656 233.256 279.721 214.751 279.721 191.918C279.721 169.092 268.656 150.606 255.006 150.59Z" fill="black"/>
</svg>
