<svg width="367" height="300" viewBox="0 0 367 300" fill="none" xmlns="http://www.w3.org/2000/svg">
<path fill-rule="evenodd" clip-rule="evenodd" d="M87.7138 4.27209C151.444 -1.42403 215.556 -1.42403 279.286 4.27209L306.783 6.73558C320.094 7.92416 332.616 13.5659 342.325 22.7492C352.035 31.9326 358.364 44.1212 360.291 57.3457C369.236 118.608 369.236 180.845 360.291 242.107C358.36 255.329 352.029 267.513 342.32 276.693C332.611 285.872 320.092 291.512 306.783 292.699L279.286 295.163C215.556 300.859 151.444 300.859 87.7138 295.163L60.217 292.699C46.9083 291.512 34.3886 285.872 24.6797 276.693C14.9707 267.513 8.63956 255.329 6.70859 242.107C-2.2362 180.845 -2.2362 118.608 6.70859 57.3457C8.63582 44.1212 14.9654 31.9326 24.6746 22.7492C34.3839 13.5659 46.9057 7.92416 60.217 6.73558L87.7138 4.27209ZM72.2083 56.2589C70.139 55.1429 67.8154 54.583 65.4648 54.6341C63.1142 54.6852 60.8171 55.3454 58.7981 56.5502C56.7791 57.755 55.1074 59.4632 53.9464 61.5077C52.7854 63.5521 52.1748 65.8629 52.1744 68.2141V240.296C52.1744 243.899 53.6057 247.354 56.1535 249.902C58.7012 252.45 62.1567 253.881 65.7598 253.881C69.3629 253.881 72.8184 252.45 75.3661 249.902C77.9139 247.354 79.3452 243.899 79.3452 240.296V90.9651L177.051 143.568C181.073 145.741 185.927 145.741 189.949 143.568L287.655 90.9651V240.296C287.655 243.899 289.086 247.354 291.634 249.902C294.182 252.45 297.637 253.881 301.24 253.881C304.843 253.881 308.299 252.45 310.846 249.902C313.394 247.354 314.826 243.899 314.826 240.296V68.2141C314.825 65.8629 314.215 63.5521 313.054 61.5077C311.893 59.4632 310.221 57.755 308.202 56.5502C306.183 55.3454 303.886 54.6852 301.535 54.6341C299.185 54.583 296.861 55.1429 294.792 56.2589L183.5 116.18L72.2083 56.2589Z" fill="#001F3F"/>
</svg>
