<svg width="367" height="367" viewBox="0 0 367 367" fill="none" xmlns="http://www.w3.org/2000/svg">
<path d="M183.5 0C82.1545 0 0 82.1545 0 183.5C0 284.846 82.1545 367 183.5 367C284.846 367 367 284.846 367 183.5C367 82.1545 284.846 0 183.5 0ZM138.581 259.557H101.422V139.976H138.581V259.557ZM119.772 125.296C108.036 125.296 100.447 116.981 100.447 106.698C100.447 96.2037 108.265 88.1373 120.25 88.1373C132.235 88.1373 139.575 96.2037 139.804 106.698C139.804 116.981 132.235 125.296 119.772 125.296ZM274.294 259.557H237.136V193.287C237.136 177.861 231.745 167.386 218.308 167.386C208.043 167.386 201.946 174.478 199.25 181.302C198.256 183.729 198.008 187.17 198.008 190.592V259.538H160.83V178.11C160.83 163.181 160.352 150.699 159.855 139.957H192.14L193.841 156.568H194.586C199.48 148.769 211.465 137.262 231.516 137.262C255.963 137.262 274.294 153.643 274.294 188.852V259.557Z" fill="#001F3F"/>
</svg>
