<?xml version="1.0" encoding="UTF-8" standalone="no"?>
<!-- Created with Inkscape (http://www.inkscape.org/) -->

<svg
   width="1133.5516mm"
   height="840.52649mm"
   viewBox="0 0 1133.5517 840.52649"
   version="1.1"
   id="svg1"
   xml:space="preserve"
   xmlns="http://www.w3.org/2000/svg"
   xmlns:svg="http://www.w3.org/2000/svg"><defs
     id="defs1" /><g
     id="layer1"
     transform="translate(-2708.2192,-5427.4956)"><path
       id="path15"
       style="fill:#eee7d7;fill-opacity:1;stroke-width:1"
       d="m 2770.7665,5427.7272 c -1.1165,0.3023 -2.1329,0.7429 -2.2604,0.9799 -0.6056,1.1328 -4.5228,1.5355 -16.3848,1.6828 -7.4754,0.094 -13.107,0.3687 -13.7842,0.6752 -0.6297,0.2854 -2.3602,0.6273 -3.8446,0.7579 -1.4846,0.1308 -4.4055,0.5997 -6.4918,1.0406 -2.0863,0.4416 -4.1047,0.6576 -4.485,0.4823 -0.3804,-0.1755 -2.179,-0.3998 -3.9977,-0.5006 -3.1278,-0.1717 -3.3171,-0.1237 -3.4962,0.9085 -0.2641,1.5195 -1.8726,51.5022 -2.617,81.3273 -0.1529,6.1107 -0.3341,12.9987 -0.4035,15.307 -0.4509,15.1091 -0.6855,21.8756 -0.8574,24.6886 -0.016,0.155 -0.027,1.0897 -0.037,1.3173 h -0.3909 v 13.7427 c -0.1272,6.5179 -0.3167,12.8504 -0.4201,14.0724 -0.1029,1.2222 -0.2975,6.9993 -0.4316,12.8382 -0.1335,5.8388 -0.4269,15.8376 -0.6503,22.2196 -0.2235,6.382 -0.5978,18.2695 -0.8323,26.4166 -0.571,19.8312 -0.8278,27.6776 -1.1011,33.5765 -0.1255,2.7157 -0.052,5.2388 0.1629,5.6071 0.1787,0.3047 1.9126,0.4204 3.2725,0.5794 v 448.8171 21.3373 h 8.5251 c 0.1806,0.4203 0.4297,0.8987 0.6761,1.1237 0.5805,0.5292 1.5934,2.4307 1.5934,2.9905 0,0.1869 -0.2731,0.091 -0.6071,-0.2103 -0.3336,-0.3021 -0.7321,-0.4149 -0.8857,-0.2468 -0.1545,0.1679 0.172,0.7136 0.7211,1.2141 0.5496,0.5004 0.7601,0.9258 0.4689,0.9258 -0.2912,0 -0.6611,0.665 -0.8199,1.4572 -0.1593,0.792 -0.5819,1.5635 -0.9398,1.7128 -0.8235,0.3449 -0.8576,3.0824 -0.045,3.6117 0.3336,0.2171 0.7223,0.8954 0.8624,1.5063 0.1985,0.8614 0.063,1.1111 -0.6062,1.1111 -0.4743,0 -0.8624,0.205 -0.8624,0.4569 0,0.7658 2.3219,2.5028 3.3407,2.5028 0.5263,0 1.9346,0.3807 3.1303,0.8487 1.8993,0.7422 2.2336,0.7579 2.6436,0.1251 0.3912,-0.6052 0.429,-0.5877 0.2255,0.108 -0.1893,0.6468 0.2829,1.0326 2.1065,1.7205 1.2923,0.4877 2.6887,0.8949 3.102,0.8949 0.4136,0 1.2269,0.4521 1.8087,0.9951 1.6012,1.4952 2.9635,2.2219 4.1657,2.2219 1.4704,0 4.0022,1.2045 3.5718,1.6994 -0.41,0.4712 1.437,-0.074 3.0463,-0.8987 1.9571,-1.0033 6.208,0.1679 8.3014,2.2883 1.6863,1.7076 7.0285,4.8998 9.3401,5.5811 0.622,0.1829 2.2765,1.0853 3.6774,2.004 1.4009,0.9188 2.756,1.6702 3.0106,1.6702 0.5091,0 6.0579,3.3395 6.4259,3.8674 0.1272,0.181 0.9424,0.7085 1.8131,1.1716 0.8708,0.4633 2.296,1.2773 3.1668,1.8085 3.1202,1.9035 8.2251,4.5093 8.8336,4.5093 0.3412,0 0.7834,0.2864 0.9821,0.6366 0.3417,0.601 7.9997,5.7825 8.5466,5.7825 0.485,0 8.5224,4.4846 9.2154,5.1421 0.3818,0.3624 1.508,0.9385 2.5032,1.2808 0.9952,0.3421 2.3861,0.9411 3.0912,1.3308 0.705,0.3899 2.5377,0.9285 4.0717,1.1968 1.534,0.2686 3.6393,1.0312 4.6787,1.6945 1.0395,0.6633 2.1867,1.2055 2.5498,1.2055 0.3634,0 1.6964,0.7777 2.9623,1.7282 1.2657,0.9505 2.4755,1.7281 2.6878,1.7281 0.2121,0 1.2849,0.643 2.3852,1.4283 1.0999,0.7854 2.6423,1.5762 3.4279,1.7572 0.7855,0.181 2.1736,1.1193 3.0836,2.084 1.641,1.7395 5.9318,5.0999 6.5118,5.0999 0.1656,0 1.0352,0.5441 1.9318,1.2092 0.8965,0.6649 2.1502,1.3521 2.786,1.5257 0.636,0.1736 1.2541,0.5952 1.3739,0.9355 0.1207,0.3406 1.4628,1.1281 2.9848,1.7493 2.036,0.8312 3.2857,1.7597 4.7318,3.5153 1.3415,1.6287 2.7379,2.7086 4.3994,3.4044 1.3384,0.5605 2.8407,1.2137 3.3381,1.4513 0.4975,0.2374 2.1811,0.9273 3.7415,1.5323 1.5602,0.6049 2.9343,1.2724 3.0538,1.4833 0.1207,0.211 1.269,0.5408 2.5548,0.7341 1.286,0.1929 3.7357,0.8696 5.4448,1.5043 1.7092,0.6345 3.3552,1.0689 3.6566,0.9663 0.8164,-0.2804 12.8495,-0.8847 15.6014,-0.7841 1.382,0.05 2.9649,-0.2266 3.7581,-0.6587 1.0008,-0.5448 1.6806,-0.6175 2.5182,-0.2699 0.6312,0.2621 2.4,0.5671 3.9311,0.679 3.3333,0.2423 9.2937,1.1754 9.8341,1.54 0.2121,0.1437 5.1247,0.355 10.9167,0.4726 5.7923,0.1152 11.5312,0.4191 12.7532,0.6721 1.2814,0.2655 3.3558,0.2842 4.9008,0.047 1.4736,-0.2278 2.916,-0.3173 3.2059,-0.2016 0.29,0.1152 2.4616,0.3178 4.8251,0.4448 11.3992,0.6145 13.1854,0.7672 13.9157,1.1927 0.432,0.252 2.9232,0.8219 5.5354,1.2673 7.6085,1.2967 8.7681,1.5473 9.725,2.0927 0.4974,0.2836 1.862,0.5481 3.0315,0.5873 1.1696,0.04 2.6585,0.2934 3.309,0.5632 0.6502,0.2699 1.7905,0.49 2.5331,0.49 0.7425,0 1.9181,0.323 2.6138,0.7156 0.706,0.3987 2.4452,0.7053 3.9362,0.6866 1.4691,-0.019 3.2809,0.2503 4.0274,0.5874 0.7463,0.3368 2.68,0.7725 4.2972,0.9691 v 0.019 c 1.6174,0.1966 3.2658,0.388 3.6641,0.4271 0.3983,0.04 1.3964,-0.1847 2.2171,-0.4975 1.122,-0.4228 2.344,-0.4238 4.9292,0 2.8314,0.4641 3.7582,0.437 5.2484,-0.1511 0.9952,-0.3933 3.0553,-0.7172 4.5789,-0.7358 1.5237,-0.019 3.564,-0.3276 4.5341,-0.7013 1.2483,-0.4894 3.3477,-0.6242 7.182,-0.4898 3.7843,0.1322 6.645,-0.058 9.4888,-0.6306 2.2389,-0.4514 7.1241,-0.9798 10.8562,-1.1737 7.3376,-0.3816 16.0628,-1.3218 17.4442,-1.8797 1.3861,-0.5596 10.5331,0.2615 12.3997,1.1129 0.9379,0.4277 2.7484,0.7833 4.0243,0.7833 1.2758,0 3.3375,0.3475 4.5815,0.7656 1.4294,0.4806 4.6765,0.8305 8.8211,0.9537 3.6076,0.1066 7.9834,0.4129 9.725,0.68 4.0526,0.6214 14.35,0.642 16.8498,0.034 1.057,-0.2574 4.8224,-0.5873 8.3679,-0.7329 3.5458,-0.1456 7.3632,-0.471 8.4826,-0.7233 3.0315,-0.6834 4.949,-1.0167 7.4638,-1.2971 2.6279,-0.2929 4.5565,-1.0003 6.0011,-2.1999 1.4045,-1.1663 6.8969,-2.93 9.8549,-3.165 1.3385,-0.1066 2.8305,-0.4257 3.3149,-0.7088 0.4847,-0.2821 2.9149,-0.4908 5.4014,-0.4628 2.4867,0.029 4.7097,-0.074 4.939,-0.2296 0.6352,-0.4283 12.045,-1.0559 16.4754,-0.9047 2.7524,0.094 4.4187,-0.094 5.597,-0.6316 2.4652,-1.1244 9.4668,-1.0283 12.7771,0.1754 1.4226,0.5173 4.2154,1.063 6.2057,1.2123 1.9904,0.1493 5.1449,0.5325 7.0107,0.8497 1.8659,0.3174 4.3212,0.623 5.4554,0.6789 1.1344,0.055 2.7431,0.4729 3.5753,0.9259 0.8321,0.4532 2.0417,0.8231 2.6878,0.8419 1.277,0.019 6.0436,1.1817 6.7221,1.6394 0.2309,0.155 3.047,0.3188 6.2571,0.3635 3.21,0.046 6.3235,0.282 6.9192,0.5267 0.6508,0.2656 1.6439,0.2595 2.4883,-0.019 0.7728,-0.2539 3.8473,-1.06 6.8327,-1.7908 2.9854,-0.7308 6.446,-1.635 7.69,-2.0098 3.8889,-1.1717 6.1899,-1.587 10.7356,-1.9375 3.3077,-0.2551 4.6743,-0.5739 5.4988,-1.2817 0.6035,-0.5182 1.2718,-0.9422 1.4852,-0.9422 0.2131,0 1.1792,-0.4632 2.1465,-1.0291 1.7466,-1.0218 3.0311,-1.1893 12.7032,-1.6529 1.9904,-0.095 3.9238,-0.3073 4.297,-0.4697 0.3731,-0.1623 2.4164,-0.3765 4.5407,-0.4734 2.124,-0.097 4.3263,-0.4492 4.8942,-0.7812 0.5683,-0.3319 2.4941,-0.689 4.2804,-0.7917 4.0804,-0.2361 10.6289,-1.1079 11.1953,-1.4901 0.3837,-0.2587 4.7196,-0.542 14.8962,-0.9729 1.866,-0.078 4.6139,-0.3875 6.1067,-0.6859 1.4928,-0.2983 6.378,-0.6616 10.8562,-0.8071 9.395,-0.305 11.963,-0.7088 15.2596,-2.4025 2.1542,-1.1067 3.0091,-1.2335 8.9408,-1.3231 4.1759,-0.064 7.0982,-0.3357 8.0427,-0.7502 0.8158,-0.3583 2.3424,-0.6954 3.3923,-0.7513 1.0502,-0.054 2.1128,-0.2592 2.3618,-0.4543 0.8734,-0.6843 4.3136,-1.0939 18.147,-2.1602 2.4086,-0.1847 4.5096,-0.6863 6.1067,-1.4552 3.1104,-1.4978 9.6574,-2.2775 17.1359,-2.0416 3.1099,0.1 6.2722,-0.03 7.0279,-0.2844 2.3023,-0.7753 4.7958,-0.6407 8.3837,0.4531 1.8834,0.5742 4.3263,1.0609 5.4282,1.0609 1.1022,0 2.6151,0.043 3.3614,0.077 6.2212,0.2772 15.1162,-0.7025 18.8523,-2.0764 2.2597,-0.8305 3.3445,-0.9622 5.5486,-0.6731 1.5068,0.1975 5.448,0.3818 8.7588,0.4079 5.5267,0.046 6.0833,0.1351 6.7861,1.0793 0.4209,0.5664 1.8712,1.5341 3.2225,2.1504 2.2316,1.0178 3.2354,1.1278 10.9253,1.1949 7.0489,0.061 8.6086,0.2071 9.3042,0.8652 0.4594,0.435 1.344,0.9484 1.966,1.1409 3.3888,1.0483 4.5211,1.3117 6.7852,1.5767 1.3682,0.1605 2.6953,0.4746 2.9491,0.6993 0.2536,0.2248 1.781,0.5243 3.393,0.6662 1.6122,0.1422 3.8221,0.6002 4.9108,1.0205 1.2506,0.483 3.5487,0.7648 6.2422,0.7648 3.0071,0 4.6715,0.2306 5.6501,0.783 2.1446,1.2107 7.6098,1.4881 10.6848,0.5429 5.5706,-1.7128 8.5348,-1.7825 11.6594,-0.2737 3.2306,1.5599 5.9282,2.318 6.5982,1.8543 0.7951,-0.5542 3.4291,-0.5637 3.7382,-0.018 0.132,0.2328 1.2638,0.5551 2.5165,0.7175 1.4223,0.1847 2.8449,0.7664 3.7882,1.5517 1.0915,0.9088 2.0639,1.2577 3.5094,1.2577 1.0994,0 3.1161,0.4563 4.4809,1.0144 3.5659,1.4586 7.446,0.9469 13.2819,-1.7512 1.1715,-0.5408 2.3211,-0.7061 3.4613,-0.4956 2.026,0.3735 7.38,-0.9217 9.034,-2.1854 0.6217,-0.4752 2.2508,-1.214 3.6192,-1.6415 3.4849,-1.089 11.2677,-2.5691 12.892,-2.4534 0.7464,0.054 2.6209,-0.3444 4.1657,-0.8854 1.5449,-0.541 3.6447,-0.9836 4.6663,-0.9836 1.0218,0 2.302,-0.2604 2.8449,-0.5776 0.5432,-0.3175 3.5321,-0.9863 6.6423,-1.4872 3.11,-0.5009 6.3094,-1.1452 7.1096,-1.4312 0.8001,-0.2861 2.398,-0.6212 3.5519,-0.7444 1.154,-0.1237 2.4538,-0.4315 2.8874,-0.6847 0.4987,-0.2915 0.9538,-0.2798 1.2392,0.031 0.4937,0.5391 6.301,-0.2752 7.1337,-1 0.2586,-0.2251 1.1825,-0.5327 2.0533,-0.6819 0.8706,-0.1512 3.2115,-0.6309 5.2019,-1.0686 5.2013,-1.1438 15.1642,-1.4831 32.175,-1.0985 0.7783,0.018 3.1671,-0.2651 5.3083,-0.6287 3.6128,-0.6134 4.0296,-0.5941 5.8006,0.2777 1.5832,0.779 2.8375,0.923 7.3582,0.839 2.997,-0.055 6.8425,-0.1209 8.5451,-0.1473 1.9341,-0.028 3.4613,0.21 4.0708,0.6374 1.2126,0.8501 4.4621,1.9893 8.8919,3.1161 1.8659,0.4748 3.8462,1.1814 4.4009,1.571 0.7475,0.5257 2.2717,0.6769 5.8814,0.5912 8.5203,-0.2052 12.8461,0.041 14.7781,0.8399 1.8267,0.7557 4.8894,1.3631 9.7699,1.9385 1.3682,0.1624 3.3549,0.7377 4.4143,1.2805 1.2785,0.6554 3.1031,1.0363 5.4281,1.1314 1.926,0.08 3.9093,0.2262 4.4067,0.325 0.8781,0.1736 0.9001,-0.05 0.7702,-7.4742 -0.1528,-8.6745 -0.8941,-37.1119 -1.2108,-46.4143 -0.1175,-3.3946 -0.3214,-11.5048 -0.4566,-18.0227 -0.1351,-6.5177 -0.3434,-13.7392 -0.4615,-16.0474 0,-0.067 -0.016,-0.3233 -0.016,-0.3974 h 2.2038 v -504.238 -94.9689 -49.8244 c -1.5498,-0.9537 -4.4729,-1.9404 -8.6681,-2.6629 -2.2317,-0.3843 -4.9227,-1.0002 -5.9795,-1.3683 -4.1137,-1.4331 -5.457,-1.7363 -8.7562,-1.9791 -3.4314,-0.2527 -9.8067,-2.4117 -11.9763,-4.0552 -1.5108,-1.1445 -10.4774,-2.5696 -14.3557,-2.2818 -2.3983,0.1772 -3.8959,0.018 -5.6409,-0.6221 -2.2419,-0.8157 -2.7073,-0.8178 -8.2789,-0.051 -6.1107,0.8428 -6.9823,0.7535 -9.9238,-1.0213 -1.3776,-0.8306 -4.4634,-0.8179 -8.6648,0.04 -2.5929,0.5286 -4.036,0.5589 -6.6199,0.1364 -1.8174,-0.2971 -4.7895,-0.4979 -6.6048,-0.4457 -1.8152,0.053 -3.7865,-0.1209 -4.3802,-0.3818 -0.7552,-0.3318 -2.0682,-0.238 -4.3744,0.3134 -2.8132,0.6735 -3.7168,0.6976 -6.1689,0.1624 -2.6393,-0.5759 -2.97,-0.5506 -4.0701,0.3114 -0.8731,0.684 -2.6449,1.1013 -6.5365,1.5411 -7.8103,0.883 -10.8319,1.3448 -11.3635,1.7359 -0.2599,0.1911 -1.296,0.468 -2.3028,0.6136 -1.0069,0.1454 -2.6389,0.5825 -3.6259,0.9699 -0.987,0.3875 -3.5057,0.8622 -5.5978,1.0552 -2.0921,0.1932 -4.567,0.659 -5.4995,1.0358 -0.9322,0.3768 -2.7582,0.7874 -4.0575,0.9142 -1.2992,0.1266 -3.0352,0.4839 -3.8572,0.7956 -0.8224,0.3116 -2.937,0.7439 -4.6987,0.9606 -8.6399,1.0626 -13.9213,2.2486 -15.4184,3.4621 -2.1787,1.7664 -5.0856,2.5618 -8.1574,2.2318 -2.0532,-0.2207 -3.27,-0.1081 -4.2755,0.3981 -5.9904,3.0116 -10.3731,3.0956 -14.0056,0.2683 -1.2794,-0.9959 -3.1435,-1.5626 -4.9697,-1.5123 -0.7366,0.021 -1.5765,-0.2935 -1.8671,-0.6983 -0.2905,-0.4048 -0.842,-0.7521 -1.2242,-0.7521 -0.3825,0 -1.0589,-0.3344 -1.5044,-0.7243 -0.4453,-0.3896 -1.9519,-0.8568 -3.3481,-1.0397 -1.7912,-0.2344 -2.9105,-0.6951 -3.803,-1.5633 -1.1944,-1.1618 -1.5555,-1.2263 -6.476,-1.2449 -3.7003,-0.019 -6.6281,0.305 -10.101,1.0897 -4.6707,1.0551 -5.001,1.0689 -7.3542,0.3057 -1.355,-0.4398 -2.9981,-1.1219 -3.6516,-1.516 -0.6742,-0.4065 -2.3683,-0.7177 -3.9153,-0.7195 -1.4997,0 -3.4217,-0.2056 -4.2713,-0.4532 -0.8494,-0.2477 -2.7928,-0.7165 -4.3195,-1.0415 -12.6738,-2.6977 -12.9446,-2.7729 -16.063,-4.4585 -1.5628,-0.8446 -3.4416,-1.5323 -4.1747,-1.5323 -0.7329,0 -3.7091,0.035 -6.6149,0.075 -2.9057,0.04 -5.7888,-0.1393 -6.4068,-0.4001 -0.618,-0.2596 -1.9632,-0.7646 -2.9889,-1.1215 -1.0786,-0.3755 -2.2244,-1.2104 -2.7169,-1.9809 -0.8455,-1.3137 -0.8925,-1.3331 -6.0368,-1.3145 -2.8515,0.019 -6.4264,-0.2535 -7.9439,-0.5855 -3.0282,-0.6626 -5.8638,-0.3768 -7.1129,0.7167 -0.4427,0.3876 -1.4778,0.719 -2.3002,0.7377 -0.8222,0.019 -1.9749,0.3404 -2.5615,0.7157 -0.7125,0.4559 -1.234,0.5216 -1.5717,0.1977 -0.3323,-0.3194 -1.6749,-0.2875 -3.9186,0.091 -2.394,0.4038 -3.8379,0.4245 -4.8352,0.07 -0.782,-0.2785 -2.7666,-0.4892 -4.4109,-0.4688 -2.0649,0.026 -3.8482,-0.3059 -5.7657,-1.0742 -1.7551,-0.7029 -3.6402,-1.0833 -5.1255,-1.0348 -1.2919,0.048 -5.04,0.046 -8.3288,0 -3.2888,-0.047 -6.8452,-0.085 -7.9022,-0.1038 -2.4873,-0.028 -7.2598,0.9734 -10.2979,2.1592 -1.6009,0.6251 -3.5134,0.9241 -5.765,0.8998 -1.8536,-0.02 -3.8511,0.1137 -4.4383,0.298 -0.5873,0.1848 -3.0852,0.388 -5.552,0.4514 -2.9165,0.077 -5.1383,0.4023 -6.3537,0.9345 -1.0278,0.45 -2.5757,0.8178 -3.4387,0.8178 -0.8633,0 -1.7923,0.2586 -2.0651,0.5739 -0.3114,0.3601 -2.6077,0.6311 -6.1715,0.7318 -8.1993,0.2298 -10.9623,0.5383 -12.9094,1.4389 -2.1616,1 -3.7596,1.1788 -13.0542,1.4651 -7.9211,0.2437 -9.0893,0.3553 -12.8138,1.2217 -1.2921,0.3005 -5.4243,0.6524 -9.1828,0.7831 -3.7587,0.1308 -9.4288,0.5175 -12.6001,0.8612 -3.1714,0.3431 -6.5632,0.4871 -7.5378,0.3173 -1.0769,-0.1874 -3.255,0.043 -5.5519,0.5854 -2.0793,0.4914 -4.6624,0.9017 -5.7391,0.9017 -1.0765,0 -2.0873,0.1587 -2.2471,0.3434 -0.1593,0.1848 -3.4109,0.3929 -7.2253,0.4638 -5.5838,0.1024 -7.4875,0.3272 -9.7675,1.1477 -1.5574,0.5606 -3.0696,1.3501 -3.3606,1.7553 -0.3787,0.5276 -1.3335,0.724 -3.3615,0.6904 -1.9342,-0.031 -3.5772,0.2837 -5.181,0.9943 -1.2921,0.5724 -4.9438,1.5005 -8.1151,2.0628 -3.1713,0.5621 -6.232,1.2829 -6.8003,1.601 -2.6729,1.4954 -22.0457,-0.6149 -26.9415,-2.9348 -0.8222,-0.3897 -2.5525,-0.9069 -3.8446,-1.1494 -1.2921,-0.2426 -2.9032,-0.6878 -3.5803,-0.9885 -0.677,-0.3017 -1.5859,-0.4153 -2.0208,-0.2566 -0.4348,0.1605 -1.9633,-0.055 -3.3956,-0.4813 -1.4323,-0.4243 -3.2141,-0.7715 -3.9594,-0.7715 -0.7451,0 -2.6999,-0.453 -4.3435,-1.0068 -1.6437,-0.5541 -4.4298,-1.2396 -6.1915,-1.5227 -1.7618,-0.2833 -3.9157,-0.6306 -4.786,-0.7706 -1.2128,-0.1961 -1.9088,0.019 -2.984,0.8987 -1.194,0.9894 -1.8156,1.1295 -4.1839,0.9895 -1.5298,-0.091 -3.166,-0.1792 -3.6359,-0.1976 -1.5893,-0.061 -13.6344,0.6418 -19.0061,1.109 -9.8751,0.8588 -15.3585,2.1043 -17.3903,3.952 -0.5845,0.5315 -1.7631,1.0921 -2.6204,1.2451 -0.857,0.1531 -2.6158,0.4987 -3.9079,0.7677 -3.0424,0.6334 -7.1797,1.0099 -13.0267,1.1872 -5.194,0.1568 -8.7303,0.566 -10.678,1.2362 -0.7047,0.2351 -2.4344,0.3483 -3.8439,0.2344 -1.4095,-0.1137 -3.9086,-0.3129 -5.5529,-0.4455 -1.6445,-0.1322 -4.3348,-0.4865 -5.9793,-0.7888 -1.6443,-0.3021 -5.6804,-0.6041 -8.9692,-0.6712 -4.1559,-0.084 -6.5779,-0.3628 -7.9395,-0.9134 -1.1685,-0.4718 -2.6837,-0.6953 -3.7558,-0.5536 -1.1627,0.155 -2.2809,-0.041 -3.166,-0.5516 -0.753,-0.4347 -3.4675,-1.0282 -6.0318,-1.3192 -3.866,-0.4389 -5.5804,-0.3873 -10.0369,0.3027 -2.9562,0.4578 -6.06,1.0367 -6.8967,1.2865 -0.8365,0.2499 -3.5265,0.5549 -5.9786,0.6781 -4.862,0.2442 -7.1675,0.5782 -10.4379,1.5112 -1.3765,0.3917 -4.5653,0.5571 -8.9692,0.4618 -5.5444,-0.1194 -7.0228,0 -7.8313,0.6029 -1.0332,0.7768 -7.5272,1.6452 -14.1653,1.8949 -1.9967,0.074 -4.1591,0.3803 -4.8051,0.6789 -0.7917,0.3664 -1.5309,0.3868 -2.2696,0.061 -0.6025,-0.2649 -1.9677,-0.4813 -3.0329,-0.4813 -1.065,0 -2.542,-0.3138 -3.2825,-0.6973 -0.7403,-0.3833 -3.5559,-0.9623 -6.2571,-1.2856 -2.7016,-0.3235 -5.4885,-0.8624 -6.1933,-1.1988 -0.7048,-0.3363 -2.3378,-0.7696 -3.6299,-0.9623 -1.292,-0.1926 -3.6948,-0.8191 -5.3392,-1.3927 -1.7849,-0.6222 -4.4056,-1.084 -6.5016,-1.1456 -2.054,-0.06 -4.0918,-0.4153 -4.9116,-0.8536 -1.0242,-0.5479 -4.0991,-0.8807 -11.4375,-1.2373 -5.5204,-0.2683 -10.614,-0.4765 -11.3186,-0.4765 -4.7065,0.041 -22.4311,-0.5737 -22.7309,-0.7878 -0.2023,-0.1438 -1.8974,-0.3951 -3.7672,-0.5575 -7.226,-0.6281 -8.5858,-0.8267 -10.8229,-1.5787 -1.54,-0.5165 -3.0389,-0.672 -4.4916,-0.4639 -5.2068,0.7466 -6.818,0.8579 -13.2845,0.9307 -8.8551,0.1 -12.5491,-0.8497 -21.9019,-5.6291 -1.0046,-0.5131 -2.061,-0.9344 -2.3486,-0.9355 -0.2872,0 -1.099,-0.621 -1.8038,-1.3761 -2.4069,-2.5794 -4.566,-4.2429 -6.9815,-5.3805 -1.3282,-0.6256 -2.6317,-1.1386 -2.8966,-1.1399 -0.2649,0 -0.6944,-0.299 -0.9547,-0.6616 -0.2603,-0.3626 -1.2657,-0.9615 -2.2338,-1.3309 -0.968,-0.3692 -1.8528,-0.9513 -1.966,-1.2933 -0.1126,-0.3418 -1.0911,-1.1157 -2.1714,-1.7204 -1.0805,-0.6047 -2.9864,-2.1706 -4.2363,-3.4795 -1.2501,-1.3088 -2.672,-2.379 -3.1593,-2.379 -0.4873,0 -2.2524,-0.7779 -3.9212,-1.7284 -1.669,-0.9505 -3.2526,-1.7281 -3.5194,-1.7281 -0.2667,0 -0.9266,-0.5445 -1.467,-1.2093 -0.5401,-0.6647 -1.5773,-1.3594 -2.3036,-1.5441 -0.7261,-0.1847 -1.6141,-0.4963 -1.9743,-0.6933 -0.3602,-0.1971 -1.4041,-0.7769 -2.3195,-1.2885 -0.9155,-0.5117 -2.0953,-0.8653 -2.6222,-0.7851 -1.4323,0.2171 -8.3009,-3.0156 -11.1512,-5.2482 -1.3755,-1.0772 -3.1124,-2.1077 -3.8596,-2.2924 -0.7473,-0.1849 -1.5874,-0.6536 -1.8671,-1.0435 -0.2799,-0.3897 -0.8431,-0.7088 -1.2516,-0.7088 -0.4082,0 -1.4509,-0.5562 -2.3177,-1.2363 -0.8669,-0.6801 -2.7683,-1.9181 -4.2247,-2.7504 -3.3055,-1.8893 -6.2239,-3.8614 -7.6178,-5.1481 -0.5887,-0.543 -2.1147,-1.5166 -3.3897,-2.163 -1.2754,-0.6467 -2.7983,-1.4186 -3.3855,-1.7156 -0.5874,-0.2972 -1.6053,-1.0405 -2.262,-1.6511 -0.6565,-0.6106 -2.002,-1.3554 -2.9898,-1.655 -0.9878,-0.2997 -2.7178,-1.1015 -3.8446,-1.7823 -1.1267,-0.6809 -3.2542,-1.6366 -4.7271,-2.1235 -2.8092,-0.9289 -4.1869,-1.6849 -5.616,-3.0812 -0.4728,-0.4621 -1.7551,-1.2976 -2.8491,-1.8574 -1.0943,-0.5595 -2.0525,-1.211 -2.1299,-1.4476 -0.077,-0.2364 -2.8576,-0.571 -6.1781,-0.7446 -3.9711,-0.207 -7.6983,-0.7393 -10.8911,-1.5555 -8.7679,-2.24 -12.3114,-2.7645 -14.5726,-2.1525 z m -48.3445,727.8737 h 1.5936 c 0.3889,0.082 0.7596,0.2772 0.76,0.6232 0,0.8972 -0.859,0.934 -1.8886,0.078 -0.2797,-0.2322 -0.4199,-0.4635 -0.465,-0.7021 z m 8.0678,0.4755 c 0.3808,0.1642 0.7057,0.7112 1.0203,1.6608 0.3206,0.9681 0.888,1.8866 1.2599,2.0435 0.5512,0.2306 0.5646,0.3613 0.074,0.7011 h -8e-4 c -0.9679,0.6697 -1.6367,0.5054 -2.6163,-0.6424 -0.5045,-0.5919 -1.0486,-0.9316 -1.2076,-0.758 -0.3743,0.4085 -1.9809,-0.5214 -1.9809,-1.1466 0,-0.262 0.3201,-0.4764 0.711,-0.4764 0.3909,0 1.0163,-0.3333 1.3896,-0.7405 0.535,-0.5842 0.9703,-0.8043 1.3507,-0.6415 z m -12.5252,0.3934 c -0.2628,0 -0.3534,0.2221 -0.1996,0.4938 0.1545,0.2716 0.3695,0.4938 0.479,0.4938 0.1078,0 0.1995,-0.2222 0.1995,-0.4938 0,-0.2717 -0.2155,-0.4938 -0.4789,-0.4938 z m 59.7627,0.9886 c 0.2341,0 0.4258,0.2222 0.4258,0.4938 0,0.2714 -0.3166,0.4938 -0.7044,0.4938 -0.388,0 -0.5797,-0.2224 -0.4258,-0.4938 0.1545,-0.2716 0.4704,-0.4938 0.7044,-0.4938 z m -51.6885,0.03 c 0.1223,0.048 0.032,0.2362 -0.2678,0.5631 -0.7913,0.8638 -0.665,1.383 0.336,1.383 1.203,0 1.4283,0.5774 0.7793,1.9981 -0.5556,1.217 -1.6631,1.7812 -2.2453,1.1457 -0.6536,-0.7133 -0.3391,-4.5107 0.3991,-4.82 0.5452,-0.2285 0.877,-0.3186 0.9987,-0.2699 z m 2.9614,2.762 c 0.3814,0.077 0.7302,0.3844 0.9091,0.8939 0.1594,0.4507 -0.059,0.5652 -0.7143,0.3782 -0.6404,-0.183 -0.838,-0.085 -0.618,0.3026 0.3867,0.6834 0.2609,0.7056 -0.6046,0.108 -0.5269,-0.3637 -0.5424,-0.5903 -0.081,-1.1977 0.3119,-0.4101 0.7266,-0.5625 1.1085,-0.485 z m -5.581,0.1717 c 0.2486,0 0.4525,0.2223 0.4525,0.4938 0,0.2716 -0.2039,0.4938 -0.4525,0.4938 -0.2488,0 -0.4524,-0.2222 -0.4524,-0.4938 0,-0.2715 0.2036,-0.4938 0.4524,-0.4938 z m 10.1484,3.4035 c 0.1693,0.3004 0.1833,0.7691 0.029,1.0405 -0.3264,0.5747 -1.1407,0.6646 -1.1236,0.1237 0.016,-0.8777 0.7903,-1.7011 1.0944,-1.1641 z m -7.9371,2.2412 c 0.2767,0.1867 0.5032,0.646 0.5032,1.0212 0,0.9887 -0.7243,1.3266 -1.2798,0.5962 -0.5794,-0.7623 0.063,-2.0992 0.7766,-1.6174 z m -3.3424,0.2806 c 0.3732,0 0.6787,0.1847 0.6787,0.4109 0,0.2268 -0.3055,0.4117 -0.6787,0.4117 -0.3732,0 -0.6784,-0.1848 -0.6784,-0.4117 0,-0.2268 0.3052,-0.4109 0.6784,-0.4109 z m 11.9881,0.2468 c 0.2486,-0.1679 0.4516,0.041 0.4516,0.4639 0,0.4235 -0.203,0.7707 -0.4516,0.7707 -0.2488,0 -0.4532,-0.2093 -0.4532,-0.465 0,-0.2555 0.2044,-0.6015 0.4532,-0.7696 z m -4.4509,1.3378 c 0.572,0.1152 1.0578,0.4338 1.0578,0.8774 0,0.4037 -0.3563,0.8095 -0.7918,0.9009 -0.4353,0.091 -0.7916,-0.072 -0.7916,-0.3636 0,-0.2914 -0.3463,-0.5303 -0.7692,-0.5303 -0.5528,0 -0.6312,-0.1511 -0.2786,-0.5353 0.3434,-0.3747 1.0016,-0.4641 1.5734,-0.3491 z m -5.9536,0.1436 c 0.2488,-0.1679 0.4524,-0.082 0.4524,0.1891 0,0.2717 -0.2036,0.6306 -0.4524,0.7985 -0.2488,0.1681 -0.4525,0.084 -0.4525,-0.1881 0,-0.2716 0.2037,-0.6314 0.4525,-0.7995 z" /></g></svg>
