<?xml version="1.0" encoding="UTF-8" standalone="no"?>
<!-- Created with Inkscape (http://www.inkscape.org/) -->

<svg
   width="1133.5518mm"
   height="572.95935mm"
   viewBox="0 0 1133.5518 572.95935"
   version="1.1"
   id="svg1"
   xml:space="preserve"
   xmlns="http://www.w3.org/2000/svg"
   xmlns:svg="http://www.w3.org/2000/svg"><defs
     id="defs1" /><g
     id="layer1"
     transform="translate(-1441.0192,-5373.9814)"><path
       id="path16"
       style="fill:#eee7d7;fill-opacity:1;stroke-width:0.999996"
       d="m 1503.5665,5374.14 c -1.1165,0.206 -2.1329,0.5064 -2.2604,0.6679 -0.6056,0.7722 -4.5228,1.0467 -16.3848,1.1471 -7.4754,0.064 -13.107,0.2514 -13.7842,0.4603 -0.6297,0.1946 -2.3602,0.4276 -3.8446,0.5166 -1.4846,0.089 -4.4055,0.4088 -6.4918,0.7094 -2.0863,0.301 -4.1047,0.4482 -4.485,0.3288 -0.3804,-0.1197 -2.179,-0.2726 -3.9977,-0.3413 -3.1278,-0.117 -3.3171,-0.084 -3.4962,0.6193 -0.2641,1.0358 -1.8726,35.1073 -2.617,55.4381 -0.1529,4.1655 -0.3341,8.8608 -0.4035,10.4343 -0.4509,10.2994 -0.6855,14.9119 -0.8574,16.8294 -0.016,0.1056 -0.027,0.7428 -0.037,0.8979 h -0.3909 v 9.368 c -0.1272,4.443 -0.3167,8.7597 -0.4201,9.5927 -0.1029,0.8331 -0.2975,4.7712 -0.4316,8.7513 -0.1335,3.9802 -0.4269,10.796 -0.6503,15.1464 -0.2235,4.3504 -0.5978,12.4537 -0.8323,18.0073 -0.571,13.5183 -0.8278,18.8669 -1.1011,22.888 -0.1255,1.8512 -0.052,3.5711 0.1629,3.8222 0.1787,0.2077 1.9126,0.2866 3.2725,0.3949 v 305.9437 14.5449 h 8.5251 c 0.1806,0.2865 0.4297,0.6127 0.6761,0.766 0.5805,0.3608 1.5934,1.657 1.5934,2.0386 0,0.1274 -0.2731,0.062 -0.6071,-0.1434 -0.3336,-0.2059 -0.7321,-0.2828 -0.8857,-0.1682 -0.1545,0.1144 0.172,0.4864 0.7211,0.8276 0.5496,0.3411 0.7601,0.6311 0.4689,0.6311 -0.2912,0 -0.6611,0.4533 -0.8199,0.9933 -0.1593,0.5399 -0.5819,1.0658 -0.9398,1.1675 -0.8235,0.2352 -0.8576,2.1012 -0.045,2.462 0.3336,0.148 0.7223,0.6104 0.8624,1.0268 0.1985,0.5872 0.063,0.7574 -0.6062,0.7574 -0.4743,0 -0.8624,0.1398 -0.8624,0.3115 0,0.522 2.3219,1.706 3.3407,1.706 0.5263,0 1.9346,0.2596 3.1303,0.5786 1.8993,0.5059 2.2336,0.5166 2.6436,0.085 0.3912,-0.4126 0.429,-0.4007 0.2255,0.074 -0.1893,0.4409 0.2829,0.7039 2.1065,1.1728 1.2923,0.3324 2.6887,0.61 3.102,0.61 0.4136,0 1.2269,0.3082 1.8087,0.6783 1.6012,1.0193 2.9635,1.5146 4.1657,1.5146 1.4704,0 4.0022,0.8211 3.5718,1.1585 -0.41,0.3212 1.437,-0.05 3.0463,-0.6127 1.9571,-0.6839 6.208,0.1145 8.3014,1.5599 1.6863,1.164 7.0285,3.34 9.3401,3.8044 0.622,0.1247 2.2765,0.7399 3.6774,1.3661 1.4009,0.6263 2.756,1.1385 3.0106,1.1385 0.5091,0 6.0579,2.2765 6.4259,2.6363 0.1272,0.1234 0.9424,0.483 1.8131,0.7986 0.8708,0.3159 2.296,0.8707 3.1668,1.2328 3.1202,1.2976 8.2251,3.0739 8.8336,3.0739 0.3412,0 0.7834,0.1952 0.9821,0.4339 0.3417,0.4097 7.9997,3.9418 8.5466,3.9418 0.485,0 8.5224,3.057 9.2154,3.5052 0.3818,0.247 1.508,0.6397 2.5032,0.873 0.9952,0.2332 2.3861,0.6416 3.0912,0.9072 0.705,0.2658 2.5377,0.6329 4.0717,0.8158 1.534,0.1831 3.6393,0.703 4.6787,1.1551 1.0395,0.4522 2.1867,0.8218 2.5498,0.8218 0.3634,0 1.6964,0.5301 2.9623,1.178 1.2657,0.6479 2.4755,1.178 2.6878,1.178 0.2121,0 1.2849,0.4383 2.3852,0.9736 1.0999,0.5354 2.6423,1.0745 3.4279,1.1978 0.7855,0.1234 2.1736,0.763 3.0836,1.4206 1.641,1.1858 5.9318,3.4765 6.5118,3.4765 0.1656,0 1.0352,0.3709 1.9318,0.8242 0.8965,0.4533 2.1502,0.9217 2.786,1.0401 0.636,0.1183 1.2541,0.4057 1.3739,0.6377 0.1207,0.2321 1.4628,0.769 2.9848,1.1924 2.036,0.5666 3.2857,1.1995 4.7318,2.3963 1.3415,1.1102 2.7379,1.8463 4.3994,2.3206 1.3384,0.3821 2.8407,0.8274 3.3381,0.9893 0.4975,0.1619 2.1811,0.6321 3.7415,1.0446 1.5602,0.4123 2.9343,0.8673 3.0538,1.0111 0.1207,0.1438 1.269,0.3686 2.5548,0.5004 1.286,0.1315 3.7357,0.5928 5.4448,1.0254 1.7092,0.4325 3.3552,0.7286 3.6566,0.6587 0.8164,-0.1911 12.8495,-0.6031 15.6014,-0.5345 1.382,0.034 2.9649,-0.1545 3.7581,-0.449 1.0008,-0.3714 1.6806,-0.4209 2.5182,-0.184 0.6312,0.1787 2.4,0.3866 3.9311,0.4629 3.3333,0.1651 9.2937,0.8012 9.8341,1.0497 0.2121,0.098 5.1247,0.242 10.9167,0.3222 5.7923,0.078 11.5312,0.2857 12.7532,0.4581 1.2814,0.181 3.3558,0.1938 4.9008,0.032 1.4736,-0.1553 2.916,-0.2163 3.2059,-0.1374 0.29,0.079 2.4616,0.2166 4.8251,0.3032 11.3992,0.4188 13.1854,0.5229 13.9157,0.813 0.432,0.1718 2.9232,0.5602 5.5354,0.8639 7.6085,0.8839 8.7681,1.0547 9.725,1.4265 0.4974,0.1933 1.862,0.3736 3.0315,0.4003 1.1696,0.027 2.6585,0.2 3.309,0.3839 0.6502,0.184 1.7905,0.3341 2.5331,0.3341 0.7425,0 1.9181,0.2201 2.6138,0.4878 0.706,0.2717 2.4452,0.4807 3.9362,0.468 1.4691,-0.013 3.2809,0.1706 4.0274,0.4004 0.7463,0.2296 2.68,0.5266 4.2972,0.6606 v 0.013 c 1.6174,0.134 3.2658,0.2644 3.6641,0.2911 0.3983,0.027 1.3964,-0.1259 2.2171,-0.3391 1.122,-0.2882 2.344,-0.2889 4.9292,0 2.8314,0.3163 3.7582,0.2979 5.2484,-0.103 0.9952,-0.2681 3.0553,-0.4889 4.5789,-0.5016 1.5237,-0.013 3.564,-0.2233 4.5341,-0.4781 1.2483,-0.3336 3.3477,-0.4255 7.182,-0.3338 3.7843,0.09 6.645,-0.04 9.4888,-0.4299 2.2389,-0.3077 7.1241,-0.6679 10.8562,-0.8001 7.3376,-0.2601 16.0628,-0.901 17.4442,-1.2813 1.3861,-0.3815 10.5331,0.1783 12.3997,0.7586 0.9379,0.2916 2.7484,0.534 4.0243,0.534 1.2758,0 3.3375,0.2369 4.5815,0.5219 1.4294,0.3276 4.6765,0.5661 8.8211,0.6501 3.6076,0.073 7.9834,0.2814 9.725,0.4635 4.0526,0.4236 14.35,0.4376 16.8498,0.023 1.057,-0.1755 4.8224,-0.4004 8.3679,-0.4996 3.5458,-0.099 7.3632,-0.3211 8.4826,-0.4931 3.0315,-0.4658 4.949,-0.693 7.4638,-0.8842 2.6279,-0.1996 4.5565,-0.6818 6.0011,-1.4996 1.4045,-0.795 6.8969,-1.9972 9.8549,-2.1574 1.3385,-0.073 2.8305,-0.2902 3.3149,-0.4832 0.4847,-0.1923 2.9149,-0.3346 5.4014,-0.3155 2.4867,0.02 4.7097,-0.05 4.939,-0.1565 0.6352,-0.2919 12.045,-0.7198 16.4754,-0.6167 2.7524,0.064 4.4187,-0.064 5.597,-0.4305 2.4652,-0.7665 9.4668,-0.701 12.7771,0.1195 1.4226,0.3527 4.2154,0.7247 6.2057,0.8264 1.9904,0.1018 5.1449,0.363 7.0107,0.5792 1.8659,0.2164 4.3212,0.4247 5.4554,0.4628 1.1344,0.037 2.7431,0.3224 3.5753,0.6312 0.8321,0.3089 2.0417,0.5611 2.6878,0.5739 1.277,0.013 6.0436,0.8055 6.7221,1.1175 0.2309,0.1057 3.047,0.2173 6.2571,0.2478 3.21,0.031 6.3235,0.1922 6.9192,0.359 0.6508,0.1811 1.6439,0.1769 2.4883,-0.013 0.7728,-0.1731 3.8473,-0.7226 6.8327,-1.2208 2.9854,-0.4981 6.446,-1.1145 7.69,-1.37 3.8889,-0.7987 6.1899,-1.0818 10.7356,-1.3207 3.3077,-0.1739 4.6743,-0.3912 5.4988,-0.8737 0.6035,-0.3532 1.2718,-0.6423 1.4852,-0.6423 0.2131,0 1.1792,-0.3157 2.1465,-0.7015 1.7466,-0.6965 3.0311,-0.8107 12.7032,-1.1267 1.9904,-0.065 3.9238,-0.2095 4.297,-0.3202 0.3731,-0.1106 2.4164,-0.2566 4.5407,-0.3227 2.124,-0.066 4.3263,-0.3062 4.8942,-0.5325 0.5683,-0.2262 2.4941,-0.4697 4.2804,-0.5397 4.0804,-0.1609 10.6289,-0.7552 11.1953,-1.0157 0.3837,-0.1764 4.7196,-0.3695 14.8962,-0.6632 1.866,-0.053 4.6139,-0.2642 6.1067,-0.4676 1.4928,-0.2033 6.378,-0.451 10.8562,-0.5501 9.395,-0.208 11.963,-0.4832 15.2596,-1.6377 2.1542,-0.7544 3.0091,-0.8409 8.9408,-0.902 4.1759,-0.044 7.0982,-0.2288 8.0427,-0.5113 0.8158,-0.2443 2.3424,-0.4741 3.3923,-0.5122 1.0502,-0.037 2.1128,-0.1767 2.3618,-0.3097 0.8734,-0.4664 4.3136,-0.7456 18.147,-1.4725 2.4086,-0.1259 4.5096,-0.4678 6.1067,-0.992 3.1104,-1.021 9.6574,-1.5525 17.1359,-1.3917 3.1099,0.068 6.2722,-0.02 7.0279,-0.1938 2.3023,-0.5285 4.7958,-0.4368 8.3837,0.3088 1.8834,0.3915 4.3263,0.7232 5.4282,0.7232 1.1022,0 2.6151,0.029 3.3614,0.052 6.2212,0.189 15.1162,-0.4789 18.8523,-1.4154 2.2597,-0.5661 3.3445,-0.6559 5.5486,-0.4588 1.5068,0.1346 5.448,0.2602 8.7588,0.278 5.5267,0.031 6.0833,0.092 6.7861,0.7357 0.4209,0.3861 1.8712,1.0458 3.2225,1.4659 2.2316,0.6938 3.2354,0.7688 10.9253,0.8145 7.0489,0.042 8.6086,0.1412 9.3042,0.5898 0.4594,0.2965 1.344,0.6465 1.966,0.7777 3.3888,0.7146 4.5211,0.8942 6.7852,1.0748 1.3682,0.1094 2.6953,0.3235 2.9491,0.4767 0.2536,0.1532 1.781,0.3574 3.393,0.4541 1.6122,0.097 3.8221,0.4092 4.9108,0.6957 1.2506,0.3292 3.5487,0.5213 6.2422,0.5213 3.0071,0 4.6715,0.1572 5.6501,0.5337 2.1446,0.8253 7.6098,1.0144 10.6848,0.3701 5.5706,-1.1675 8.5348,-1.2151 11.6594,-0.1866 3.2306,1.0634 5.9282,1.5801 6.5982,1.2641 0.7951,-0.3778 3.4291,-0.3843 3.7382,-0.012 0.132,0.1587 1.2638,0.3784 2.5165,0.4891 1.4223,0.1259 2.8449,0.5224 3.7882,1.0577 1.0915,0.6195 2.0639,0.8574 3.5094,0.8574 1.0994,0 3.1161,0.311 4.4809,0.6914 3.5659,0.9943 7.446,0.6455 13.2819,-1.1937 1.1715,-0.3686 2.3211,-0.4813 3.4613,-0.3378 2.026,0.2546 7.38,-0.6283 9.034,-1.4897 0.6217,-0.324 2.2508,-0.8276 3.6192,-1.119 3.4849,-0.7423 11.2677,-1.7513 12.892,-1.6724 0.7464,0.037 2.6209,-0.2348 4.1657,-0.6035 1.5449,-0.3688 3.6447,-0.6705 4.6663,-0.6705 1.0218,0 2.302,-0.1775 2.8449,-0.3938 0.5432,-0.2164 3.5321,-0.6723 6.6423,-1.0137 3.11,-0.3415 6.3094,-0.7807 7.1096,-0.9756 0.8001,-0.1951 2.398,-0.4235 3.5519,-0.5075 1.154,-0.084 2.4538,-0.2941 2.8874,-0.4667 0.4987,-0.1987 0.9538,-0.1907 1.2392,0.021 0.4937,0.3675 6.301,-0.1876 7.1337,-0.6816 0.2586,-0.1535 1.1825,-0.3632 2.0533,-0.4649 0.8706,-0.103 3.2115,-0.43 5.2019,-0.7284 5.2013,-0.7797 15.1642,-1.011 32.175,-0.7488 0.7783,0.012 3.1671,-0.1807 5.3083,-0.4286 3.6128,-0.4181 4.0296,-0.405 5.8006,0.1893 1.5832,0.531 2.8375,0.6292 7.3582,0.5719 2.997,-0.038 6.8425,-0.082 8.5451,-0.1004 1.9341,-0.019 3.4613,0.1432 4.0708,0.4345 1.2126,0.5795 4.4621,1.3561 8.8919,2.1242 1.8659,0.3236 3.8462,0.8053 4.4009,1.0709 0.7475,0.3583 2.2717,0.4614 5.8814,0.403 8.5203,-0.1399 12.8461,0.028 14.7781,0.5725 1.8267,0.5151 4.8894,0.9292 9.7699,1.3214 1.3682,0.1107 3.3549,0.5029 4.4143,0.8729 1.2785,0.4467 3.1031,0.7064 5.4281,0.7712 1.926,0.055 3.9093,0.1542 4.4067,0.2216 0.8781,0.1183 0.9001,-0.034 0.7702,-5.095 -0.1528,-5.9131 -0.8941,-25.2979 -1.2108,-31.639 -0.1175,-2.314 -0.3214,-7.8425 -0.4566,-12.2855 -0.1351,-4.4429 -0.3434,-9.3656 -0.4615,-10.939 0,-0.046 -0.016,-0.2204 -0.016,-0.2709 h 2.2038 v -343.7222 -64.7372 -33.9636 c -1.5498,-0.6501 -4.4729,-1.3227 -8.6681,-1.8152 -2.2317,-0.262 -4.9227,-0.6818 -5.9795,-0.9327 -4.1137,-0.9769 -5.457,-1.1836 -8.7562,-1.3491 -3.4314,-0.1723 -9.8067,-1.644 -11.9763,-2.7643 -1.5108,-0.7802 -10.4774,-1.7516 -14.3557,-1.5555 -2.3983,0.1208 -3.8959,0.012 -5.6409,-0.424 -2.2419,-0.5561 -2.7073,-0.5575 -8.2789,-0.035 -6.1107,0.5745 -6.9823,0.5137 -9.9238,-0.6962 -1.3776,-0.5662 -4.4634,-0.5575 -8.6648,0.027 -2.5929,0.3603 -4.036,0.381 -6.6199,0.093 -1.8174,-0.2025 -4.7895,-0.3394 -6.6048,-0.3038 -1.8152,0.036 -3.7865,-0.082 -4.3802,-0.2603 -0.7552,-0.2262 -2.0682,-0.1622 -4.3744,0.2136 -2.8132,0.4591 -3.7168,0.4756 -6.1689,0.1107 -2.6393,-0.3925 -2.97,-0.3753 -4.0701,0.2123 -0.8731,0.4663 -2.6449,0.7507 -6.5365,1.0505 -7.8103,0.6019 -10.8319,0.9167 -11.3635,1.1833 -0.2599,0.1303 -1.296,0.319 -2.3028,0.4183 -1.0069,0.099 -2.6389,0.3971 -3.6259,0.6611 -0.987,0.2642 -3.5057,0.5878 -5.5978,0.7193 -2.0921,0.1317 -4.567,0.4493 -5.4995,0.7061 -0.9322,0.2569 -2.7582,0.5368 -4.0575,0.6232 -1.2992,0.086 -3.0352,0.3298 -3.8572,0.5423 -0.8224,0.2124 -2.937,0.5071 -4.6987,0.6548 -8.6399,0.7244 -13.9213,1.5328 -15.4184,2.36 -2.1787,1.2041 -5.0856,1.7463 -8.1574,1.5214 -2.0532,-0.1505 -3.27,-0.074 -4.2755,0.2713 -5.9904,2.053 -10.3731,2.1102 -14.0056,0.1829 -1.2794,-0.6788 -3.1435,-1.0651 -4.9697,-1.0308 -0.7366,0.014 -1.5765,-0.2001 -1.8671,-0.4761 -0.2905,-0.2759 -0.842,-0.5126 -1.2242,-0.5126 -0.3825,0 -1.0589,-0.228 -1.5044,-0.4938 -0.4453,-0.2655 -1.9519,-0.584 -3.3481,-0.7087 -1.7912,-0.1598 -2.9105,-0.4738 -3.803,-1.0656 -1.1944,-0.792 -1.5555,-0.836 -6.476,-0.8487 -3.7003,-0.013 -6.6281,0.208 -10.101,0.7429 -4.6707,0.7192 -5.001,0.7286 -7.3542,0.2083 -1.355,-0.2998 -2.9981,-0.7647 -3.6516,-1.0334 -0.6742,-0.2771 -2.3683,-0.4892 -3.9153,-0.4904 -1.4997,0 -3.4217,-0.1402 -4.2713,-0.309 -0.8494,-0.1688 -2.7928,-0.4884 -4.3195,-0.7099 -12.6738,-1.8389 -12.9446,-1.8902 -16.063,-3.0392 -1.5628,-0.5758 -3.4416,-1.0445 -4.1747,-1.0445 -0.7329,0 -3.7091,0.024 -6.6149,0.051 -2.9057,0.027 -5.7888,-0.095 -6.4068,-0.2727 -0.618,-0.177 -1.9632,-0.5212 -2.9889,-0.7645 -1.0786,-0.256 -2.2244,-0.8251 -2.7169,-1.3504 -0.8455,-0.8955 -0.8925,-0.9087 -6.0368,-0.896 -2.8515,0.013 -6.4264,-0.1728 -7.9439,-0.3991 -3.0282,-0.4517 -5.8638,-0.2569 -7.1129,0.4885 -0.4427,0.2642 -1.4778,0.4902 -2.3002,0.5029 -0.8222,0.013 -1.9749,0.232 -2.5615,0.4879 -0.7125,0.3107 -1.234,0.3555 -1.5717,0.1347 -0.3323,-0.2177 -1.6749,-0.1959 -3.9186,0.062 -2.394,0.2752 -3.8379,0.2893 -4.8352,0.048 -0.782,-0.1899 -2.7666,-0.3335 -4.4109,-0.3196 -2.0649,0.018 -3.8482,-0.2085 -5.7657,-0.7322 -1.7551,-0.4792 -3.6402,-0.7385 -5.1255,-0.7054 -1.2919,0.033 -5.04,0.031 -8.3288,0 -3.2888,-0.032 -6.8452,-0.058 -7.9022,-0.071 -2.4873,-0.019 -7.2598,0.6636 -10.2979,1.4719 -1.6009,0.4261 -3.5134,0.6299 -5.765,0.6133 -1.8536,-0.014 -3.8511,0.078 -4.4383,0.2032 -0.5873,0.126 -3.0852,0.2645 -5.552,0.3077 -2.9165,0.052 -5.1383,0.2742 -6.3537,0.637 -1.0278,0.3068 -2.5757,0.5575 -3.4387,0.5575 -0.8633,0 -1.7923,0.1762 -2.0651,0.3912 -0.3114,0.2454 -2.6077,0.4302 -6.1715,0.4988 -8.1993,0.1567 -10.9623,0.367 -12.9094,0.9809 -2.1616,0.6816 -3.7596,0.8035 -13.0542,0.9987 -7.9211,0.1661 -9.0893,0.2422 -12.8138,0.8328 -1.2921,0.2048 -5.4243,0.4447 -9.1828,0.5338 -3.7587,0.089 -9.4288,0.3527 -12.6001,0.587 -3.1714,0.2339 -6.5632,0.3321 -7.5378,0.2163 -1.0769,-0.1277 -3.255,0.029 -5.5519,0.3991 -2.0793,0.3349 -4.6624,0.6146 -5.7391,0.6146 -1.0765,0 -2.0873,0.1082 -2.2471,0.2341 -0.1593,0.126 -3.4109,0.2678 -7.2253,0.3162 -5.5838,0.07 -7.4875,0.223 -9.7675,0.7823 -1.5574,0.3822 -3.0696,0.9203 -3.3606,1.1966 -0.3787,0.3596 -1.3335,0.4935 -3.3615,0.4706 -1.9342,-0.021 -3.5772,0.1934 -5.181,0.6778 -1.2921,0.3901 -4.9438,1.0228 -8.1151,1.4061 -3.1713,0.3832 -6.232,0.8745 -6.8003,1.0914 -2.6729,1.0193 -22.0457,-0.4192 -26.9415,-2.0006 -0.8222,-0.2656 -2.5525,-0.6182 -3.8446,-0.7835 -1.2921,-0.1654 -2.9032,-0.4689 -3.5803,-0.6738 -0.677,-0.2057 -1.5859,-0.2831 -2.0208,-0.175 -0.4348,0.1095 -1.9633,-0.037 -3.3956,-0.328 -1.4323,-0.2893 -3.2141,-0.5259 -3.9594,-0.5259 -0.7451,0 -2.6999,-0.3088 -4.3435,-0.6863 -1.6437,-0.3778 -4.4298,-0.845 -6.1915,-1.038 -1.7618,-0.1931 -3.9157,-0.4299 -4.786,-0.5253 -1.2128,-0.1337 -1.9088,0.013 -2.984,0.6126 -1.194,0.6744 -1.8156,0.7699 -4.1839,0.6745 -1.5298,-0.062 -3.166,-0.1221 -3.6359,-0.1347 -1.5893,-0.042 -13.6344,0.4375 -19.0061,0.756 -9.8751,0.5854 -15.3585,1.4344 -17.3903,2.6939 -0.5845,0.3623 -1.7631,0.7445 -2.6204,0.8488 -0.857,0.1043 -2.6158,0.3399 -3.9079,0.5233 -3.0424,0.4318 -7.1797,0.6884 -13.0267,0.8093 -5.194,0.1068 -8.7303,0.3858 -10.678,0.8426 -0.7047,0.1603 -2.4344,0.2375 -3.8439,0.1598 -1.4095,-0.078 -3.9086,-0.2133 -5.5529,-0.3037 -1.6445,-0.09 -4.3348,-0.3316 -5.9793,-0.5377 -1.6443,-0.2059 -5.6804,-0.4118 -8.9692,-0.4575 -4.1559,-0.057 -6.5779,-0.2473 -7.9395,-0.6226 -1.1685,-0.3216 -2.6837,-0.474 -3.7558,-0.3774 -1.1627,0.1057 -2.2809,-0.028 -3.166,-0.376 -0.753,-0.2963 -3.4675,-0.7009 -6.0318,-0.8993 -3.866,-0.2991 -5.5804,-0.264 -10.0369,0.2064 -2.9562,0.312 -6.06,0.7067 -6.8967,0.8769 -0.8365,0.1704 -3.5265,0.3783 -5.9786,0.4623 -4.862,0.1664 -7.1675,0.3941 -10.4379,1.0301 -1.3765,0.267 -4.5653,0.3798 -8.9692,0.3148 -5.5444,-0.081 -7.0228,0 -7.8313,0.411 -1.0332,0.5295 -7.5272,1.1215 -14.1653,1.2917 -1.9967,0.05 -4.1591,0.2592 -4.8051,0.4628 -0.7917,0.2497 -1.5309,0.2636 -2.2696,0.042 -0.6025,-0.1805 -1.9677,-0.328 -3.0329,-0.328 -1.065,0 -2.542,-0.214 -3.2825,-0.4754 -0.7403,-0.2613 -3.5559,-0.6559 -6.2571,-0.8763 -2.7016,-0.2205 -5.4885,-0.5879 -6.1933,-0.8172 -0.7048,-0.2293 -2.3378,-0.5246 -3.6299,-0.656 -1.292,-0.1313 -3.6948,-0.5583 -5.3392,-0.9493 -1.7849,-0.4242 -4.4056,-0.739 -6.5016,-0.7809 -2.054,-0.041 -4.0918,-0.2831 -4.9116,-0.5819 -1.0242,-0.3735 -4.0991,-0.6004 -11.4375,-0.8434 -5.5204,-0.1829 -10.614,-0.3249 -11.3186,-0.3249 -4.7065,0.028 -22.4311,-0.391 -22.7309,-0.537 -0.2023,-0.098 -1.8974,-0.2693 -3.7672,-0.38 -7.226,-0.4282 -8.5858,-0.5635 -10.8229,-1.0762 -1.54,-0.352 -3.0389,-0.458 -4.4916,-0.3162 -5.2068,0.509 -6.818,0.5848 -13.2845,0.6344 -8.8551,0.068 -12.5491,-0.5792 -21.9019,-3.8371 -1.0046,-0.3498 -2.061,-0.637 -2.3486,-0.6377 -0.2872,0 -1.099,-0.4233 -1.8038,-0.9381 -2.4069,-1.7583 -4.566,-2.8922 -6.9815,-3.6677 -1.3282,-0.4264 -2.6317,-0.7761 -2.8966,-0.777 -0.2649,0 -0.6944,-0.2038 -0.9547,-0.451 -0.2603,-0.2472 -1.2657,-0.6554 -2.2338,-0.9072 -0.968,-0.2517 -1.8528,-0.6485 -1.966,-0.8816 -0.1126,-0.233 -1.0911,-0.7606 -2.1714,-1.1728 -1.0805,-0.4122 -2.9864,-1.4796 -4.2363,-2.3718 -1.2501,-0.8922 -2.672,-1.6217 -3.1593,-1.6217 -0.4873,0 -2.2524,-0.5303 -3.9212,-1.1782 -1.669,-0.6479 -3.2526,-1.178 -3.5194,-1.178 -0.2667,0 -0.9266,-0.3712 -1.467,-0.8243 -0.5401,-0.4531 -1.5773,-0.9267 -2.3036,-1.0526 -0.7261,-0.1259 -1.6141,-0.3383 -1.9743,-0.4726 -0.3602,-0.1343 -1.4041,-0.5296 -2.3195,-0.8783 -0.9155,-0.3488 -2.0953,-0.5899 -2.6222,-0.5352 -1.4323,0.148 -8.3009,-2.0556 -11.1512,-3.5775 -1.3755,-0.7343 -3.1124,-1.4368 -3.8596,-1.5627 -0.7473,-0.126 -1.5874,-0.4455 -1.8671,-0.7113 -0.2799,-0.2656 -0.8431,-0.4832 -1.2516,-0.4832 -0.4082,0 -1.4509,-0.3791 -2.3177,-0.8427 -0.8669,-0.4636 -2.7683,-1.3075 -4.2247,-1.8749 -3.3055,-1.2878 -6.2239,-2.6321 -7.6178,-3.5092 -0.5887,-0.3702 -2.1147,-1.0339 -3.3897,-1.4745 -1.2754,-0.4408 -2.7983,-0.967 -3.3855,-1.1695 -0.5874,-0.2025 -1.6053,-0.7092 -2.262,-1.1255 -0.6565,-0.4162 -2.002,-0.9239 -2.9898,-1.1281 -0.9878,-0.2043 -2.7178,-0.7509 -3.8446,-1.2149 -1.1267,-0.4642 -3.2542,-1.1157 -4.7271,-1.4476 -2.8092,-0.6332 -4.1869,-1.1485 -5.616,-2.1003 -0.4728,-0.315 -1.7551,-0.8845 -2.8491,-1.2661 -1.0943,-0.3814 -2.0525,-0.8255 -2.1299,-0.9868 -0.077,-0.1612 -2.8576,-0.3893 -6.1781,-0.5076 -3.9711,-0.1411 -7.6983,-0.504 -10.8911,-1.0603 -8.7679,-1.527 -12.3114,-1.8845 -14.5726,-1.4673 z m -48.3445,496.1672 h 1.5936 c 0.3889,0.056 0.7596,0.189 0.76,0.4249 0,0.6115 -0.859,0.6366 -1.8886,0.053 -0.2797,-0.1583 -0.4199,-0.3159 -0.465,-0.4786 z m 8.0678,0.3242 c 0.3808,0.1119 0.7057,0.4848 1.0203,1.1321 0.3206,0.6599 0.888,1.286 1.2599,1.393 0.5512,0.1572 0.5646,0.2463 0.074,0.4779 h -8e-4 c -0.9679,0.4565 -1.6367,0.3445 -2.6163,-0.4379 -0.5045,-0.4035 -1.0486,-0.6351 -1.2076,-0.5167 -0.3743,0.2784 -1.9809,-0.3554 -1.9809,-0.7816 0,-0.1786 0.3201,-0.3248 0.711,-0.3248 0.3909,0 1.0163,-0.2272 1.3896,-0.5047 0.535,-0.3983 0.9703,-0.5483 1.3507,-0.4373 z m -12.5252,0.2681 c -0.2628,0 -0.3534,0.1514 -0.1996,0.3366 0.1545,0.1852 0.3695,0.3367 0.479,0.3367 0.1078,0 0.1995,-0.1515 0.1995,-0.3367 0,-0.1852 -0.2155,-0.3366 -0.4789,-0.3366 z m 59.7627,0.6739 c 0.2341,0 0.4258,0.1515 0.4258,0.3366 0,0.185 -0.3166,0.3367 -0.7044,0.3367 -0.388,0 -0.5797,-0.1517 -0.4258,-0.3367 0.1545,-0.1851 0.4704,-0.3366 0.7044,-0.3366 z m -51.6885,0.02 c 0.1223,0.033 0.032,0.161 -0.2678,0.3838 -0.7913,0.5889 -0.665,0.9428 0.336,0.9428 1.203,0 1.4283,0.3936 0.7793,1.362 -0.5556,0.8296 -1.6631,1.2142 -2.2453,0.781 -0.6536,-0.4862 -0.3391,-3.0748 0.3991,-3.2856 0.5452,-0.1558 0.877,-0.2172 0.9987,-0.184 z m 2.9614,1.8828 c 0.3814,0.052 0.7302,0.262 0.9091,0.6093 0.1594,0.3072 -0.059,0.3853 -0.7143,0.2578 -0.6404,-0.1247 -0.838,-0.058 -0.618,0.2063 0.3867,0.4658 0.2609,0.481 -0.6046,0.074 -0.5269,-0.2479 -0.5424,-0.4024 -0.081,-0.8164 0.3119,-0.2796 0.7266,-0.3835 1.1085,-0.3306 z m -5.581,0.117 c 0.2486,0 0.4525,0.1515 0.4525,0.3366 0,0.1851 -0.2039,0.3366 -0.4525,0.3366 -0.2488,0 -0.4524,-0.1515 -0.4524,-0.3366 0,-0.1851 0.2036,-0.3366 0.4524,-0.3366 z m 10.1484,2.32 c 0.1693,0.2048 0.1833,0.5243 0.029,0.7093 -0.3264,0.3918 -1.1407,0.4531 -1.1236,0.084 0.016,-0.5983 0.7903,-1.1595 1.0944,-0.7935 z m -7.9371,1.5278 c 0.2767,0.1273 0.5032,0.4404 0.5032,0.6961 0,0.674 -0.7243,0.9043 -1.2798,0.4064 -0.5794,-0.5196 0.063,-1.4309 0.7766,-1.1025 z m -3.3424,0.1913 c 0.3732,0 0.6787,0.1259 0.6787,0.2801 0,0.1546 -0.3055,0.2806 -0.6787,0.2806 -0.3732,0 -0.6784,-0.126 -0.6784,-0.2806 0,-0.1546 0.3052,-0.2801 0.6784,-0.2801 z m 11.9881,0.1682 c 0.2486,-0.1144 0.4516,0.028 0.4516,0.3162 0,0.2887 -0.203,0.5254 -0.4516,0.5254 -0.2488,0 -0.4532,-0.1427 -0.4532,-0.317 0,-0.1741 0.2044,-0.41 0.4532,-0.5246 z m -4.4509,0.9119 c 0.572,0.079 1.0578,0.2957 1.0578,0.5981 0,0.2752 -0.3563,0.5518 -0.7918,0.6142 -0.4353,0.062 -0.7916,-0.049 -0.7916,-0.2479 0,-0.1986 -0.3463,-0.3615 -0.7692,-0.3615 -0.5528,0 -0.6312,-0.103 -0.2786,-0.3649 0.3434,-0.2554 1.0016,-0.3163 1.5734,-0.238 z m -5.9536,0.098 c 0.2488,-0.1144 0.4524,-0.056 0.4524,0.1289 0,0.1852 -0.2036,0.4299 -0.4524,0.5443 -0.2488,0.1146 -0.4525,0.057 -0.4525,-0.1282 0,-0.1851 0.2037,-0.4304 0.4525,-0.545 z" /></g></svg>
