<?xml version="1.0" encoding="UTF-8" standalone="no"?>
<!-- Created with Inkscape (http://www.inkscape.org/) -->

<svg
   width="1133.5516mm"
   height="604.40857mm"
   viewBox="0 0 1133.5517 604.40857"
   version="1.1"
   id="svg1"
   xml:space="preserve"
   xmlns="http://www.w3.org/2000/svg"
   xmlns:svg="http://www.w3.org/2000/svg"><defs
     id="defs1" /><g
     id="layer1"
     transform="translate(-137.2596,-5324.5703)"><path
       id="path22"
       style="fill:#eeeee3;fill-opacity:1;stroke-width:0.999996"
       d="m 199.80681,5324.738 c -1.1165,0.2173 -2.1329,0.5342 -2.2604,0.7046 -0.6056,0.8146 -4.5228,1.1041 -16.3848,1.2101 -7.4754,0.068 -13.107,0.2651 -13.7842,0.4855 -0.6297,0.2052 -2.3602,0.4511 -3.8446,0.545 -1.4846,0.094 -4.4055,0.4312 -6.4918,0.7482 -2.0863,0.3176 -4.1047,0.4729 -4.485,0.3469 -0.3804,-0.1262 -2.179,-0.2875 -3.9977,-0.36 -3.1278,-0.1235 -3.3171,-0.089 -3.4962,0.6533 -0.2641,1.0926 -1.8726,37.0342 -2.617,58.4809 -0.1529,4.394 -0.3341,9.3471 -0.4035,11.0069 -0.4509,10.8647 -0.6855,15.7303 -0.8574,17.7531 -0.016,0.1115 -0.027,0.7836 -0.037,0.9473 h -0.3909 v 9.8821 c -0.1272,4.6869 -0.3167,9.2404 -0.4201,10.1192 -0.1029,0.8788 -0.2975,5.033 -0.4316,9.2317 -0.1335,4.1985 -0.4269,11.3885 -0.6503,15.9776 -0.2235,4.5892 -0.5978,13.1373 -0.8323,18.9957 -0.571,14.2602 -0.8278,19.9024 -1.1011,24.1442 -0.1255,1.9528 -0.052,3.7671 0.1629,4.032 0.1787,0.2191 1.9126,0.3023 3.2725,0.4166 v 322.7357 15.3433 h 8.5251 c 0.1806,0.3022 0.4297,0.6462 0.6761,0.808 0.5805,0.3805 1.5934,1.7479 1.5934,2.1504 0,0.1344 -0.2731,0.065 -0.6071,-0.1512 -0.3336,-0.2173 -0.7321,-0.2984 -0.8857,-0.1775 -0.1545,0.1207 0.172,0.5131 0.7211,0.873 0.5496,0.3599 0.7601,0.6658 0.4689,0.6658 -0.2912,0 -0.6611,0.4782 -0.8199,1.0478 -0.1593,0.5695 -0.5819,1.1243 -0.9398,1.2317 -0.8235,0.248 -0.8576,2.2164 -0.045,2.5971 0.3336,0.1561 0.7223,0.6438 0.8624,1.0831 0.1985,0.6194 0.063,0.799 -0.6062,0.799 -0.4743,0 -0.8624,0.1474 -0.8624,0.3285 0,0.5507 2.3219,1.7997 3.3407,1.7997 0.5263,0 1.9346,0.2738 3.1303,0.6103 1.8993,0.5337 2.2336,0.545 2.6436,0.09 0.3912,-0.4352 0.429,-0.4226 0.2255,0.078 -0.1893,0.4651 0.2829,0.7426 2.1065,1.2372 1.2923,0.3507 2.6887,0.6435 3.102,0.6435 0.4136,0 1.2269,0.3251 1.8087,0.7156 1.6012,1.0752 2.9635,1.5977 4.1657,1.5977 1.4704,0 4.0022,0.8661 3.5718,1.222 -0.41,0.3388 1.437,-0.053 3.0463,-0.6462 1.9571,-0.7215 6.208,0.1207 8.3014,1.6454 1.6863,1.228 7.0285,3.5234 9.3401,4.0133 0.622,0.1315 2.2765,0.7804 3.6774,1.441 1.4009,0.6607 2.756,1.2011 3.0106,1.2011 0.5091,0 6.0579,2.4013 6.4259,2.7809 0.1272,0.1302 0.9424,0.5095 1.8131,0.8425 0.8708,0.3332 2.296,0.9185 3.1668,1.3005 3.1202,1.3687 8.2251,3.2425 8.8336,3.2425 0.3412,0 0.7834,0.206 0.9821,0.4578 0.3417,0.4321 7.9997,4.1581 8.5466,4.1581 0.485,0 8.5224,3.2248 9.2154,3.6975 0.3818,0.2606 1.508,0.6749 2.5032,0.921 0.9952,0.246 2.3861,0.6768 3.0912,0.957 0.705,0.2804 2.5377,0.6677 4.0717,0.8606 1.534,0.1931 3.6393,0.7415 4.6787,1.2185 1.0395,0.4769 2.1867,0.8668 2.5498,0.8668 0.3634,0 1.6964,0.5593 2.9623,1.2427 1.2657,0.6835 2.4755,1.2427 2.6878,1.2427 0.2121,0 1.2849,0.4624 2.3852,1.027 1.0999,0.5648 2.6423,1.1335 3.4279,1.2636 0.7855,0.1302 2.1736,0.8049 3.0836,1.4986 1.641,1.2508 5.9318,3.6672 6.5118,3.6672 0.1656,0 1.0352,0.3913 1.9318,0.8695 0.8965,0.4781 2.1502,0.9723 2.786,1.0971 0.636,0.1249 1.2541,0.428 1.3739,0.6727 0.1207,0.245 1.4628,0.8112 2.9848,1.2579 2.036,0.5977 3.2857,1.2654 4.7318,2.5278 1.3415,1.1712 2.7379,1.9477 4.3994,2.448 1.3384,0.4031 2.8407,0.8728 3.3381,1.0436 0.4975,0.1708 2.1811,0.6668 3.7415,1.1019 1.5602,0.435 2.9343,0.915 3.0538,1.0666 0.1207,0.1517 1.269,0.3889 2.5548,0.5279 1.286,0.1387 3.7357,0.6253 5.4448,1.0817 1.7092,0.4563 3.3552,0.7686 3.6566,0.6948 0.8164,-0.2016 12.8495,-0.6361 15.6014,-0.5638 1.382,0.036 2.9649,-0.1629 3.7581,-0.4736 1.0008,-0.3918 1.6806,-0.4441 2.5182,-0.1941 0.6312,0.1884 2.4,0.4078 3.9311,0.4882 3.3333,0.1743 9.2937,0.8452 9.8341,1.1074 0.2121,0.1033 5.1247,0.2553 10.9167,0.3399 5.7923,0.083 11.5312,0.3013 12.7532,0.4832 1.2814,0.191 3.3558,0.2044 4.9008,0.034 1.4736,-0.1638 2.916,-0.2281 3.2059,-0.1449 0.29,0.083 2.4616,0.2285 4.8251,0.3198 11.3992,0.4419 13.1854,0.5517 13.9157,0.8577 0.432,0.1812 2.9232,0.591 5.5354,0.9113 7.6085,0.9324 8.7681,1.1126 9.725,1.5048 0.4974,0.2039 1.862,0.3941 3.0315,0.4223 1.1696,0.029 2.6585,0.211 3.309,0.405 0.6502,0.1941 1.7905,0.3523 2.5331,0.3523 0.7425,0 1.9181,0.2323 2.6138,0.5146 0.706,0.2867 2.4452,0.5072 3.9362,0.4937 1.4691,-0.014 3.2809,0.18 4.0274,0.4224 0.7463,0.2422 2.68,0.5555 4.2972,0.6969 v 0.014 c 1.6174,0.1414 3.2658,0.279 3.6641,0.3072 0.3983,0.029 1.3964,-0.1329 2.2171,-0.3578 1.122,-0.304 2.344,-0.3047 4.9292,0 2.8314,0.3337 3.7582,0.3143 5.2484,-0.1086 0.9952,-0.2829 3.0553,-0.5158 4.5789,-0.5291 1.5237,-0.014 3.564,-0.2356 4.5341,-0.5043 1.2483,-0.3519 3.3477,-0.4489 7.182,-0.3522 3.7843,0.095 6.645,-0.042 9.4888,-0.4535 2.2389,-0.3246 7.1241,-0.7045 10.8562,-0.844 7.3376,-0.2744 16.0628,-0.9505 17.4442,-1.3516 1.3861,-0.4024 10.5331,0.188 12.3997,0.8002 0.9379,0.3076 2.7484,0.5633 4.0243,0.5633 1.2758,0 3.3375,0.2499 4.5815,0.5505 1.4294,0.3456 4.6765,0.5972 8.8211,0.6858 3.6076,0.077 7.9834,0.2969 9.725,0.489 4.0526,0.4468 14.35,0.4616 16.8498,0.024 1.057,-0.1851 4.8224,-0.4223 8.3679,-0.527 3.5458,-0.1047 7.3632,-0.3387 8.4826,-0.5201 3.0315,-0.4914 4.949,-0.7311 7.4638,-0.9327 2.6279,-0.2106 4.5565,-0.7193 6.0011,-1.5819 1.4045,-0.8387 6.8969,-2.1069 9.8549,-2.2759 1.3385,-0.077 2.8305,-0.3061 3.3149,-0.5097 0.4847,-0.2028 2.9149,-0.3529 5.4014,-0.3328 2.4867,0.021 4.7097,-0.053 4.939,-0.1651 0.6352,-0.308 12.045,-0.7593 16.4754,-0.6505 2.7524,0.068 4.4187,-0.068 5.597,-0.4542 2.4652,-0.8085 9.4668,-0.7394 12.7771,0.1261 1.4226,0.372 4.2154,0.7644 6.2057,0.8718 1.9904,0.1073 5.1449,0.3829 7.0107,0.611 1.8659,0.2282 4.3212,0.448 5.4554,0.4881 1.1344,0.04 2.7431,0.3401 3.5753,0.6658 0.8321,0.3259 2.0417,0.5919 2.6878,0.6054 1.277,0.014 6.0436,0.8498 6.7221,1.1789 0.2309,0.1115 3.047,0.2292 6.2571,0.2614 3.21,0.033 6.3235,0.2028 6.9192,0.3787 0.6508,0.191 1.6439,0.1866 2.4883,-0.014 0.7728,-0.1826 3.8473,-0.7623 6.8327,-1.2878 2.9854,-0.5255 6.446,-1.1757 7.69,-1.4452 3.8889,-0.8425 6.1899,-1.1412 10.7356,-1.3932 3.3077,-0.1834 4.6743,-0.4127 5.4988,-0.9216 0.6035,-0.3727 1.2718,-0.6776 1.4852,-0.6776 0.2131,0 1.1792,-0.333 2.1465,-0.74 1.7466,-0.7347 3.0311,-0.8552 12.7032,-1.1885 1.9904,-0.068 3.9238,-0.221 4.297,-0.3378 0.3731,-0.1167 2.4164,-0.2707 4.5407,-0.3404 2.124,-0.07 4.3263,-0.323 4.8942,-0.5617 0.5683,-0.2387 2.4941,-0.4955 4.2804,-0.5693 4.0804,-0.1698 10.6289,-0.7967 11.1953,-1.0715 0.3837,-0.1861 4.7196,-0.3898 14.8962,-0.6996 1.866,-0.056 4.6139,-0.2787 6.1067,-0.4933 1.4928,-0.2145 6.378,-0.4757 10.8562,-0.5803 9.395,-0.2193 11.963,-0.5097 15.2596,-1.7276 2.1542,-0.7958 3.0091,-0.887 8.9408,-0.9514 4.1759,-0.046 7.0982,-0.2414 8.0427,-0.5395 0.8158,-0.2576 2.3424,-0.5 3.3923,-0.5402 1.0502,-0.039 2.1128,-0.1864 2.3618,-0.3267 0.8734,-0.4921 4.3136,-0.7866 18.147,-1.5534 2.4086,-0.1328 4.5096,-0.4935 6.1067,-1.0464 3.1104,-1.077 9.6574,-1.6377 17.1359,-1.468 3.1099,0.072 6.2722,-0.022 7.0279,-0.2046 2.3023,-0.5575 4.7958,-0.4607 8.3837,0.3259 1.8834,0.4129 4.3263,0.7628 5.4282,0.7628 1.1022,0 2.6151,0.031 3.3614,0.055 6.2212,0.1993 15.1162,-0.5051 18.8523,-1.4931 2.2597,-0.5972 3.3445,-0.6919 5.5486,-0.484 1.5068,0.142 5.448,0.2745 8.7588,0.2933 5.5267,0.033 6.0833,0.097 6.7861,0.7761 0.4209,0.4073 1.8712,1.1032 3.2225,1.5463 2.2316,0.7319 3.2354,0.811 10.9253,0.8593 7.0489,0.044 8.6086,0.1489 9.3042,0.6221 0.4594,0.3128 1.344,0.682 1.966,0.8204 3.3888,0.7538 4.5211,0.9432 6.7852,1.1338 1.3682,0.1154 2.6953,0.3412 2.9491,0.5028 0.2536,0.1617 1.781,0.377 3.393,0.4791 1.6122,0.1022 3.8221,0.4316 4.91079,0.7338 1.2506,0.3473 3.5487,0.55 6.2422,0.55 3.0071,0 4.6715,0.1658 5.6501,0.563 2.1446,0.8706 7.6098,1.0701 10.6848,0.3904 5.5706,-1.2317 8.5348,-1.2818 11.6594,-0.1968 3.2306,1.1217 5.9282,1.6668 6.5982,1.3334 0.7951,-0.3986 3.4291,-0.4054 3.7382,-0.013 0.132,0.1674 1.2638,0.3992 2.5165,0.516 1.4223,0.1328 2.8449,0.5511 3.7882,1.1158 1.0915,0.6535 2.0639,0.9043 3.5094,0.9043 1.0994,0 3.1161,0.3282 4.4809,0.7295 3.5659,1.0488 7.446,0.6809 13.2819,-1.2593 1.1715,-0.3889 2.3211,-0.5077 3.4613,-0.3564 2.026,0.2686 7.38,-0.6627 9.034,-1.5714 0.6217,-0.3417 2.2508,-0.873 3.6192,-1.1804 3.4849,-0.7831 11.2677,-1.8474 12.892,-1.7642 0.7464,0.039 2.6209,-0.2476 4.1657,-0.6367 1.5449,-0.389 3.6447,-0.7073 4.6663,-0.7073 1.0218,0 2.302,-0.1872 2.8449,-0.4153 0.5432,-0.2283 3.5321,-0.7092 6.6423,-1.0694 3.11,-0.3602 6.3094,-0.8235 7.1096,-1.0292 0.8001,-0.2057 2.398,-0.4467 3.5519,-0.5352 1.154,-0.089 2.4538,-0.3103 2.8874,-0.4924 0.4987,-0.2096 0.9538,-0.2012 1.2392,0.022 0.4937,0.3876 6.301,-0.1979 7.1337,-0.7191 0.2586,-0.1619 1.1825,-0.383 2.0533,-0.4903 0.8706,-0.1088 3.2115,-0.4537 5.2019,-0.7684 5.2013,-0.8225 15.1642,-1.0665 32.175,-0.79 0.7783,0.013 3.1671,-0.1906 5.3083,-0.452 3.6128,-0.4411 4.0296,-0.4272 5.8006,0.1997 1.5832,0.5601 2.8375,0.6637 7.3582,0.6033 2.997,-0.04 6.8425,-0.087 8.5451,-0.106 1.9341,-0.02 3.4613,0.151 4.0708,0.4584 1.2126,0.6113 4.4621,1.4304 8.8919,2.2407 1.8659,0.3414 3.8462,0.8495 4.4009,1.1297 0.7475,0.378 2.2717,0.4867 5.8814,0.4251 8.5203,-0.1476 12.8461,0.03 14.7781,0.604 1.8267,0.5434 4.8894,0.9801 9.7699,1.3939 1.3682,0.1168 3.3549,0.5305 4.4143,0.9208 1.2785,0.4713 3.1031,0.7452 5.4281,0.8135 1.926,0.058 3.9093,0.1627 4.4067,0.2338 0.8781,0.1248 0.9001,-0.036 0.7702,-5.3746 -0.1528,-6.2377 -0.8941,-26.6865 -1.2108,-33.3756 -0.1175,-2.441 -0.3214,-8.2729 -0.4566,-12.9598 -0.1351,-4.6868 -0.3434,-9.8796 -0.4615,-11.5394 0,-0.048 -0.016,-0.2325 -0.016,-0.2857 h 2.2038 v -362.5878 -68.2903 -35.8278 c -1.5498,-0.6858 -4.4729,-1.3953 -8.6681,-1.9148 -2.2317,-0.2764 -4.9227,-0.7193 -5.9795,-0.984 -4.1137,-1.0305 -5.457,-1.2485 -8.7562,-1.4231 -3.4314,-0.1817 -9.8067,-1.7342 -11.9763,-2.916 -1.5108,-0.823 -10.4774,-1.8478 -14.3557,-1.6408 -2.3983,0.1274 -3.8959,0.013 -5.6409,-0.4473 -2.2419,-0.5866 -2.7073,-0.5881 -8.2789,-0.037 -6.1107,0.606 -6.9823,0.5418 -9.9238,-0.7344 -1.3776,-0.5973 -4.4634,-0.5881 -8.6648,0.029 -2.5929,0.3801 -4.036,0.4018 -6.6199,0.098 -1.8174,-0.2136 -4.7895,-0.358 -6.6048,-0.3205 -1.8152,0.038 -3.7865,-0.087 -4.3802,-0.2745 -0.7552,-0.2386 -2.0682,-0.1711 -4.3744,0.2254 -2.8132,0.4843 -3.7168,0.5016 -6.1689,0.1167 -2.6393,-0.4141 -2.97,-0.3959 -4.0701,0.224 -0.8731,0.4918 -2.6449,0.7919 -6.5365,1.1081 -7.8103,0.635 -10.8319,0.9671 -11.3635,1.2483 -0.2599,0.1374 -1.296,0.3365 -2.3028,0.4412 -1.0069,0.1046 -2.6389,0.4189 -3.6259,0.6974 -0.987,0.2787 -3.5057,0.62 -5.5978,0.7588 -2.0921,0.1389 -4.567,0.4739 -5.4995,0.7448 -0.9322,0.271 -2.7582,0.5662 -4.0575,0.6574 -1.2992,0.091 -3.0352,0.348 -3.8572,0.5721 -0.8224,0.2241 -2.937,0.535 -4.6987,0.6908 -8.6399,0.7641 -13.9213,1.6169 -15.4184,2.4895 -2.1787,1.2702 -5.0856,1.8421 -8.1574,1.6049 -2.0532,-0.1587 -3.27,-0.078 -4.2755,0.2862 -5.9904,2.1656 -10.3731,2.226 -14.0056,0.1929 -1.2794,-0.7161 -3.1435,-1.1236 -4.9697,-1.0874 -0.7366,0.015 -1.5765,-0.2111 -1.8671,-0.5022 -0.2905,-0.291 -0.842,-0.5408 -1.2242,-0.5408 -0.3825,0 -1.0589,-0.2404 -1.5044,-0.5208 -0.4453,-0.2802 -1.9519,-0.6161 -3.3481,-0.7476 -1.7912,-0.1686 -2.9105,-0.4999 -3.803,-1.1242 -1.1944,-0.8354 -1.5555,-0.8818 -6.476,-0.8952 -3.7003,-0.014 -6.6281,0.2194 -10.101,0.7836 -4.6707,0.7587 -5.001,0.7687 -7.3542,0.2199 -1.355,-0.3163 -2.9981,-0.8068 -3.6516,-1.0902 -0.6742,-0.2923 -2.3683,-0.5161 -3.9153,-0.5174 -1.4997,0 -3.4217,-0.1478 -4.2713,-0.3258 -0.8494,-0.1782 -2.7928,-0.5153 -4.3195,-0.749 -12.67379,-1.9398 -12.94459,-1.9939 -16.06299,-3.206 -1.5628,-0.6073 -3.4416,-1.1018 -4.1747,-1.1018 -0.7329,0 -3.7091,0.025 -6.6149,0.054 -2.9057,0.029 -5.7888,-0.1002 -6.4068,-0.2877 -0.618,-0.1867 -1.9632,-0.5498 -2.9889,-0.8065 -1.0786,-0.27 -2.2244,-0.8703 -2.7169,-1.4244 -0.8455,-0.9446 -0.8925,-0.9586 -6.0368,-0.9452 -2.8515,0.014 -6.4264,-0.1823 -7.9439,-0.421 -3.0282,-0.4765 -5.8638,-0.271 -7.1129,0.5153 -0.4427,0.2787 -1.4778,0.517 -2.3002,0.5305 -0.8222,0.014 -1.9749,0.2448 -2.5615,0.5146 -0.7125,0.3279 -1.234,0.3751 -1.5717,0.1422 -0.3323,-0.2297 -1.6749,-0.2067 -3.9186,0.065 -2.394,0.2904 -3.8379,0.3053 -4.8352,0.05 -0.782,-0.2003 -2.7666,-0.3518 -4.4109,-0.3371 -2.0649,0.019 -3.8482,-0.22 -5.7657,-0.7725 -1.7551,-0.5054 -3.6402,-0.7789 -5.1255,-0.7441 -1.2919,0.034 -5.04,0.033 -8.3288,0 -3.2888,-0.034 -6.8452,-0.061 -7.9022,-0.075 -2.4873,-0.02 -7.2598,0.6999 -10.2979,1.5526 -1.6009,0.4495 -3.5134,0.6645 -5.765,0.6471 -1.8536,-0.014 -3.8511,0.082 -4.4383,0.2142 -0.5873,0.1329 -3.0852,0.279 -5.552,0.3246 -2.9165,0.055 -5.1383,0.2893 -6.3537,0.672 -1.0278,0.3236 -2.5757,0.5881 -3.4387,0.5881 -0.8633,0 -1.7923,0.1859 -2.0651,0.4127 -0.3114,0.2589 -2.6077,0.4538 -6.1715,0.5262 -8.1993,0.1652 -10.9623,0.3871 -12.9094,1.0347 -2.1616,0.7191 -3.7596,0.8476 -13.0542,1.0535 -7.9211,0.1752 -9.0893,0.2555 -12.8138,0.8785 -1.2921,0.2161 -5.4243,0.4691 -9.1828,0.5631 -3.7587,0.094 -9.4288,0.3721 -12.6001,0.6193 -3.1714,0.2467 -6.5632,0.3502 -7.5378,0.2281 -1.0769,-0.1347 -3.255,0.031 -5.5519,0.421 -2.0793,0.3534 -4.6624,0.6484 -5.7391,0.6484 -1.0765,0 -2.0873,0.1141 -2.2471,0.2469 -0.1593,0.1329 -3.4109,0.2825 -7.2253,0.3335 -5.5838,0.074 -7.4875,0.2353 -9.7675,0.8253 -1.5574,0.4031 -3.0696,0.9709 -3.3606,1.2622 -0.3787,0.3794 -1.3335,0.5206 -3.3615,0.4965 -1.9342,-0.022 -3.5772,0.204 -5.181,0.715 -1.2921,0.4116 -4.9438,1.0789 -8.1151,1.4833 -3.1713,0.4042 -6.232,0.9225 -6.8003,1.1512 -2.6729,1.0753 -22.0457,-0.4421 -26.9415,-2.1103 -0.8222,-0.2803 -2.5525,-0.6522 -3.8446,-0.8265 -1.2921,-0.1745 -2.9032,-0.4946 -3.5803,-0.7109 -0.677,-0.2169 -1.5859,-0.2986 -2.0208,-0.1845 -0.4348,0.1154 -1.9633,-0.039 -3.3956,-0.3461 -1.4323,-0.3051 -3.2141,-0.5547 -3.9594,-0.5547 -0.7451,0 -2.6999,-0.3258 -4.3435,-0.724 -1.6437,-0.3984 -4.4298,-0.8914 -6.1915,-1.0949 -1.7618,-0.2038 -3.9157,-0.4535 -4.786,-0.5542 -1.2128,-0.141 -1.9088,0.014 -2.984,0.6463 -1.194,0.7114 -1.8156,0.8122 -4.1839,0.7115 -1.5298,-0.065 -3.166,-0.1289 -3.6359,-0.1421 -1.5893,-0.044 -13.6344,0.4615 -19.0061,0.7975 -9.8751,0.6175 -15.3585,1.5131 -17.3903,2.8418 -0.5845,0.3822 -1.7631,0.7853 -2.6204,0.8953 -0.857,0.1101 -2.6158,0.3586 -3.9079,0.552 -3.0424,0.4555 -7.1797,0.7262 -13.0267,0.8537 -5.194,0.1128 -8.7303,0.407 -10.678,0.889 -0.7047,0.169 -2.4344,0.2504 -3.8439,0.1685 -1.4095,-0.082 -3.9086,-0.225 -5.5529,-0.3203 -1.6445,-0.095 -4.3348,-0.3499 -5.9793,-0.5673 -1.6443,-0.2172 -5.6804,-0.4343 -8.9692,-0.4826 -4.1559,-0.06 -6.5779,-0.2609 -7.9395,-0.6568 -1.1685,-0.3393 -2.6837,-0.5 -3.7558,-0.3981 -1.1627,0.1115 -2.2809,-0.029 -3.166,-0.3966 -0.753,-0.3126 -3.4675,-0.7394 -6.0318,-0.9486 -3.866,-0.3156 -5.5804,-0.2785 -10.0369,0.2176 -2.9562,0.3292 -6.06,0.7455 -6.8967,0.9251 -0.8365,0.1797 -3.5265,0.399 -5.9786,0.4876 -4.862,0.1756 -7.1675,0.4158 -10.4379,1.0867 -1.3765,0.2817 -4.5653,0.4006 -8.9692,0.3321 -5.5444,-0.086 -7.0228,0 -7.8313,0.4335 -1.0332,0.5586 -7.5272,1.183 -14.1653,1.3626 -1.9967,0.053 -4.1591,0.2735 -4.8051,0.4882 -0.7917,0.2634 -1.5309,0.2781 -2.2696,0.044 -0.6025,-0.1904 -1.9677,-0.3461 -3.0329,-0.3461 -1.065,0 -2.542,-0.2256 -3.2825,-0.5014 -0.7403,-0.2756 -3.5559,-0.6919 -6.2571,-0.9244 -2.7016,-0.2326 -5.4885,-0.6202 -6.1933,-0.8621 -0.7048,-0.2418 -2.3378,-0.5534 -3.6299,-0.6919 -1.292,-0.1385 -3.6948,-0.589 -5.3392,-1.0015 -1.7849,-0.4474 -4.4056,-0.7795 -6.5016,-0.8238 -2.054,-0.043 -4.0918,-0.2986 -4.9116,-0.6138 -1.0242,-0.394 -4.0991,-0.6333 -11.4375,-0.8897 -5.5204,-0.1929 -10.614,-0.3426 -11.3186,-0.3426 -4.7065,0.029 -22.4311,-0.4126 -22.7309,-0.5665 -0.2023,-0.1034 -1.8974,-0.2841 -3.7672,-0.4009 -7.226,-0.4517 -8.5858,-0.5945 -10.8229,-1.1352 -1.54,-0.3714 -3.0389,-0.4832 -4.4916,-0.3336 -5.2068,0.5369 -6.818,0.6169 -13.2845,0.6692 -8.8551,0.072 -12.5491,-0.611 -21.9019,-4.0477 -1.0046,-0.369 -2.061,-0.6719 -2.3486,-0.6727 -0.2872,0 -1.099,-0.4466 -1.8038,-0.9896 -2.4069,-1.8548 -4.566,-3.0509 -6.9815,-3.869 -1.3282,-0.4498 -2.6317,-0.8187 -2.8966,-0.8197 -0.2649,0 -0.6944,-0.215 -0.9547,-0.4757 -0.2603,-0.2607 -1.2657,-0.6914 -2.2338,-0.957 -0.968,-0.2655 -1.8528,-0.6841 -1.966,-0.93 -0.1126,-0.2458 -1.0911,-0.8023 -2.1714,-1.2371 -1.0805,-0.4348 -2.9864,-1.5609 -4.2363,-2.5021 -1.2501,-0.9411 -2.672,-1.7107 -3.1593,-1.7107 -0.4873,0 -2.2524,-0.5593 -3.9212,-1.2428 -1.669,-0.6835 -3.2526,-1.2427 -3.5194,-1.2427 -0.2667,0 -0.9266,-0.3915 -1.467,-0.8695 -0.5401,-0.478 -1.5773,-0.9776 -2.3036,-1.1104 -0.7261,-0.1328 -1.6141,-0.3569 -1.9743,-0.4985 -0.3602,-0.1417 -1.4041,-0.5587 -2.3195,-0.9265 -0.9155,-0.368 -2.0953,-0.6223 -2.6222,-0.5646 -1.4323,0.1561 -8.3009,-2.1685 -11.1512,-3.7739 -1.3755,-0.7746 -3.1124,-1.5156 -3.8596,-1.6484 -0.7473,-0.133 -1.5874,-0.47 -1.8671,-0.7504 -0.2799,-0.2802 -0.8431,-0.5096 -1.2516,-0.5096 -0.4082,0 -1.4509,-0.4 -2.3177,-0.889 -0.8669,-0.4891 -2.7683,-1.3793 -4.2247,-1.9778 -3.3055,-1.3586 -6.2239,-2.7767 -7.6178,-3.7019 -0.5887,-0.3905 -2.1147,-1.0906 -3.3897,-1.5554 -1.2754,-0.465 -2.7983,-1.0201 -3.3855,-1.2336 -0.5874,-0.2137 -1.6053,-0.7482 -2.262,-1.1873 -0.6565,-0.4391 -2.002,-0.9746 -2.9898,-1.1901 -0.9878,-0.2155 -2.7178,-0.792 -3.8446,-1.2816 -1.1267,-0.4896 -3.2542,-1.1768 -4.7271,-1.527 -2.8092,-0.6679 -4.1869,-1.2115 -5.616,-2.2156 -0.4728,-0.3323 -1.7551,-0.9331 -2.8491,-1.3356 -1.0943,-0.4023 -2.0525,-0.8708 -2.1299,-1.041 -0.077,-0.1699 -2.8576,-0.4105 -6.1781,-0.5354 -3.9711,-0.1488 -7.6983,-0.5316 -10.8911,-1.1185 -8.7679,-1.6108 -12.3114,-1.9879 -14.5726,-1.5478 z m -48.3445,523.3999 h 1.5936 c 0.3889,0.059 0.7596,0.1993 0.76,0.4481 0,0.6451 -0.859,0.6716 -1.8886,0.056 -0.2797,-0.167 -0.4199,-0.3333 -0.465,-0.5049 z m 8.0678,0.3419 c 0.3808,0.1181 0.7057,0.5114 1.0203,1.1942 0.3206,0.6962 0.888,1.3566 1.2599,1.4695 0.5512,0.1658 0.5646,0.2598 0.074,0.5041 h -8e-4 c -0.9679,0.4816 -1.6367,0.3634 -2.6163,-0.4619 -0.5045,-0.4256 -1.0486,-0.6699 -1.2076,-0.5451 -0.3743,0.2938 -1.9809,-0.3749 -1.9809,-0.8245 0,-0.1884 0.3201,-0.3426 0.711,-0.3426 0.3909,0 1.0163,-0.2396 1.3896,-0.5324 0.535,-0.4201 0.9703,-0.5784 1.3507,-0.4613 z m -12.5252,0.2829 c -0.2628,0 -0.3534,0.1597 -0.1996,0.355 0.1545,0.1953 0.3695,0.3551 0.479,0.3551 0.1078,0 0.1995,-0.1598 0.1995,-0.3551 0,-0.1953 -0.2155,-0.355 -0.4789,-0.355 z m 59.7627,0.7108 c 0.2341,0 0.4258,0.1598 0.4258,0.3551 0,0.1952 -0.3166,0.3551 -0.7044,0.3551 -0.388,0 -0.5797,-0.1599 -0.4258,-0.3551 0.1545,-0.1953 0.4704,-0.3551 0.7044,-0.3551 z m -51.6885,0.022 c 0.1223,0.034 0.032,0.1699 -0.2678,0.4049 -0.7913,0.6212 -0.665,0.9945 0.336,0.9945 1.203,0 1.4283,0.4152 0.7793,1.4368 -0.5556,0.8751 -1.6631,1.2808 -2.2453,0.8239 -0.6536,-0.513 -0.3391,-3.2436 0.3991,-3.466 0.5452,-0.1643 0.877,-0.2291 0.9987,-0.1941 z m 2.9614,1.9861 c 0.3814,0.055 0.7302,0.2764 0.9091,0.6428 0.1594,0.3241 -0.059,0.4064 -0.7143,0.272 -0.6404,-0.1316 -0.838,-0.061 -0.618,0.2176 0.3867,0.4914 0.2609,0.5073 -0.6046,0.078 -0.5269,-0.2615 -0.5424,-0.4245 -0.081,-0.8612 0.3119,-0.2949 0.7266,-0.4045 1.1085,-0.3488 z m -5.581,0.1235 c 0.2486,0 0.4525,0.1598 0.4525,0.3551 0,0.1953 -0.2039,0.3551 -0.4525,0.3551 -0.2488,0 -0.4524,-0.1598 -0.4524,-0.3551 0,-0.1953 0.2036,-0.3551 0.4524,-0.3551 z m 10.1484,2.4474 c 0.1693,0.216 0.1833,0.553 0.029,0.7482 -0.3264,0.4132 -1.1407,0.4779 -1.1236,0.089 0.016,-0.6311 0.7903,-1.2232 1.0944,-0.837 z m -7.9371,1.6116 c 0.2767,0.1342 0.5032,0.4645 0.5032,0.7343 0,0.711 -0.7243,0.9539 -1.2798,0.4287 -0.5794,-0.5481 0.063,-1.5095 0.7766,-1.163 z m -3.3424,0.2018 c 0.3732,0 0.6787,0.1328 0.6787,0.2954 0,0.1631 -0.3055,0.2961 -0.6787,0.2961 -0.3732,0 -0.6784,-0.1329 -0.6784,-0.2961 0,-0.1631 0.3052,-0.2954 0.6784,-0.2954 z m 11.9881,0.1774 c 0.2486,-0.1207 0.4516,0.029 0.4516,0.3336 0,0.3045 -0.203,0.5542 -0.4516,0.5542 -0.2488,0 -0.4532,-0.1505 -0.4532,-0.3344 0,-0.1837 0.2044,-0.4325 0.4532,-0.5534 z m -4.4509,0.962 c 0.572,0.083 1.0578,0.3119 1.0578,0.6309 0,0.2903 -0.3563,0.5821 -0.7918,0.6479 -0.4353,0.065 -0.7916,-0.052 -0.7916,-0.2615 0,-0.2095 -0.3463,-0.3813 -0.7692,-0.3813 -0.5528,0 -0.6312,-0.1087 -0.2786,-0.385 0.3434,-0.2694 1.0016,-0.3337 1.5734,-0.251 z m -5.9536,0.1033 c 0.2488,-0.1208 0.4524,-0.059 0.4524,0.1359 0,0.1954 -0.2036,0.4535 -0.4524,0.5742 -0.2488,0.1209 -0.4525,0.06 -0.4525,-0.1352 0,-0.1953 0.2037,-0.4541 0.4525,-0.5749 z" /></g></svg>
